<?xml version="1.0" encoding="UTF-8"?>
<svg width="922px" height="680px" viewBox="0 0 922 680" version="1.1" xmlns="http://www.w3.org/2000/svg" xmlns:xlink="http://www.w3.org/1999/xlink">
    <title>编组 20</title>
    <g id="消息预览条数" stroke="none" stroke-width="1" fill="none" fill-rule="evenodd">
        <g id="编组-20">
            <rect id="矩形" fill="#F9F9F9" x="0" y="0" width="922" height="680"></rect>
            <rect id="Rectangle-15" fill="#FFFFFF" x="88" y="88" width="200" height="576"></rect>
            <g id="编组-4" transform="translate(88.000000, 118.000000)">
                <rect id="Rectangle-15" fill="#FFFFFF" x="0" y="0" width="200" height="28"></rect>
                <path d="M2.5,2 L7.79289322,2 C8.06903559,2 8.29289322,2.22385763 8.29289322,2.5 L8.29289322,7.79289322 C8.29289322,8.06903559 8.06903559,8.29289322 7.79289322,8.29289322 C7.66028497,8.29289322 7.53310802,8.2402148 7.43933983,8.14644661 L2.14644661,2.85355339 C1.95118446,2.65829124 1.95118446,2.34170876 2.14644661,2.14644661 C2.2402148,2.05267842 2.36739176,2 2.5,2 Z" id="形状" fill="#1951AE" fill-rule="nonzero" transform="translate(5.146447, 5.146447) scale(-1, 1) translate(-5.146447, -5.146447) "></path>
                <g id="编组-11" transform="translate(8.000000, 9.000000)" fill="#4A4D4C" fill-rule="nonzero">
                    <path d="M5,5 C5.53944078,5 6.06449329,5.09842548 6.56058999,5.29252503 C7.03490113,5.47812213 7.4620321,5.74257183 7.83008034,6.07854779 C8.19566679,6.41226866 8.48333667,6.79849319 8.68510712,7.22650701 C8.89404781,7.66976697 9,8.13577203 9,8.61156354 C9,8.82608836 8.8073716,9 8.56978582,9 L1.43021418,9 C1.19261645,9 1,8.82608836 1,8.61156354 C1,8.13716393 1.10596414,7.67202205 1.31494068,7.22903185 C1.51673503,6.80126619 1.80433321,6.41505245 2.16971651,6.08106183 C2.53788424,5.74454638 2.96493157,5.47960034 3.43899175,5.29357165 C3.93541111,5.09877076 4.46060702,5 5,5 Z M5,1 C6.10279836,1 7,1.89720164 7,3 C7,4.10279836 6.10279836,5 5,5 C3.89719137,5 3,4.10279836 3,3 C3,1.89720164 3.89720164,1 5,1 Z" id="形状结合"></path>
                </g>
                <text id="09:10" font-family="PingFangSC-Regular, PingFang SC" font-size="12" font-weight="normal" fill="#8F9598">
                    <tspan x="160.42" y="19">09:10</tspan>
                </text>
                <rect id="Rectangle-15" fill="#EEEEEE" x="0" y="27" width="200" height="1"></rect>
                <text id="王光杰" font-family="PingFangSC-Medium, PingFang SC" font-size="12" font-weight="400" fill="#111111">
                    <tspan x="24" y="18">王光杰</tspan>
                </text>
            </g>
            <g id="编组-4" transform="translate(88.000000, 146.000000)">
                <rect id="Rectangle-15" fill="#FFFFFF" x="0" y="0" width="200" height="28"></rect>
                <path d="M2.5,2 L7.79289322,2 C8.06903559,2 8.29289322,2.22385763 8.29289322,2.5 L8.29289322,7.79289322 C8.29289322,8.06903559 8.06903559,8.29289322 7.79289322,8.29289322 C7.66028497,8.29289322 7.53310802,8.2402148 7.43933983,8.14644661 L2.14644661,2.85355339 C1.95118446,2.65829124 1.95118446,2.34170876 2.14644661,2.14644661 C2.2402148,2.05267842 2.36739176,2 2.5,2 Z" id="形状" fill="#1951AE" fill-rule="nonzero" transform="translate(5.146447, 5.146447) scale(-1, 1) translate(-5.146447, -5.146447) "></path>
                <g id="编组-10" transform="translate(8.000000, 9.000000)" fill="#4A4D4C" fill-rule="nonzero">
                    <path d="M4,1.125 C5.10279836,1.125 6,2.02220164 6,3.125 C6,4.02617563 5.40087601,4.79006002 4.58002468,5.0392565 C4.91574241,5.08378673 5.2440601,5.16868162 5.56058999,5.29252503 C6.03490113,5.47812213 6.4620321,5.74257183 6.83008034,6.07854779 C7.19566679,6.41226866 7.48333667,6.79849319 7.68510712,7.22650701 C7.89404781,7.66976697 8,8.13577203 8,8.61156354 C8,8.82608836 7.8073716,9 7.56978582,9 L0.430214181,9 C0.192616449,9 0,8.82608836 0,8.61156354 C0,8.13716393 0.105964143,7.67202205 0.314940681,7.22903185 C0.516735033,6.80126619 0.804333213,6.41505245 1.16971651,6.08106183 C1.53788424,5.74454638 1.96493157,5.47960034 2.43899175,5.29357165 C2.75572751,5.16928075 3.08417809,5.08408333 3.42055656,5.03869125 C2.59911713,4.79006002 2,4.02617563 2,3.125 C2,2.02220164 2.89720164,1.125 4,1.125 Z M6.71122434,0.00791798679 C7.12274853,0.096888901 7.5009595,0.311755465 7.80473431,0.634410471 C8.21326609,1.0683333 8.43825214,1.64524767 8.43825214,2.25890619 C8.43825214,2.87256471 8.21326609,3.44947909 7.80473431,3.88340192 C7.72886648,3.96398508 7.64835567,4.03784493 7.56384252,4.10469937 C7.62069005,4.12569669 7.67699398,4.14990811 7.73290517,4.17564548 C8.17759522,4.38032674 8.57805656,4.67202854 8.92316969,5.0426243 C9.26598183,5.410752 9.53572932,5.836777 9.72490849,6.30888869 C9.86709323,6.66376104 9.9583957,7.03184058 9.99773907,7.40764938 C10.0190184,7.61084178 9.88766142,7.79121348 9.70612421,7.82878753 L9.63589567,7.83594983 C9.45034366,7.83594983 9.29490844,7.68762484 9.27429029,7.49175639 C9.24263197,7.19104915 9.16935197,6.89620508 9.05530039,6.61158243 C8.9022455,6.22964559 8.68370899,5.88464552 8.40577771,5.5861776 C7.90743967,5.05103982 7.27325308,4.7237015 6.59345492,4.64472326 C6.40956915,4.62335339 6.27026346,4.45854651 6.27026346,4.26206405 L6.27026346,4.25909033 C6.27026346,4.22992755 6.27329697,4.20158602 6.27903389,4.17438005 L6.27530748,4.13279738 C6.27530748,3.94955823 6.39519652,3.78913368 6.56418826,3.75230526 C7.21758748,3.60991568 7.71053011,2.9944031 7.71053011,2.25890619 C7.71053011,1.52340929 7.21758748,0.907884668 6.56418826,0.765507127 C6.4193382,0.733939909 6.31056359,0.611567371 6.28244126,0.461855434 L6.27530748,0.385015006 C6.27530748,0.141025216 6.48612494,-0.0407451303 6.71122434,0.00791798679 Z" id="team"></path>
                </g>
                <text id="09:10" font-family="PingFangSC-Regular, PingFang SC" font-size="12" font-weight="normal" fill="#8F9598">
                    <tspan x="160.42" y="19">09:10</tspan>
                </text>
                <rect id="Rectangle-15" fill="#EEEEEE" x="0" y="27" width="200" height="1"></rect>
                <text id="外部群聊" font-family="PingFangSC-Medium, PingFang SC" font-size="12" font-weight="400" fill="#111111">
                    <tspan x="24" y="18">外部群聊</tspan>
                </text>
            </g>
            <g id="编组-4" transform="translate(88.000000, 174.000000)">
                <rect id="Rectangle-15" fill="#FFFFFF" x="0" y="0" width="200" height="28"></rect>
                <g id="编组-11" transform="translate(8.000000, 9.000000)" fill="#4A4D4C" fill-rule="nonzero">
                    <path d="M5,5 C5.53944078,5 6.06449329,5.09842548 6.56058999,5.29252503 C7.03490113,5.47812213 7.4620321,5.74257183 7.83008034,6.07854779 C8.19566679,6.41226866 8.48333667,6.79849319 8.68510712,7.22650701 C8.89404781,7.66976697 9,8.13577203 9,8.61156354 C9,8.82608836 8.8073716,9 8.56978582,9 L1.43021418,9 C1.19261645,9 1,8.82608836 1,8.61156354 C1,8.13716393 1.10596414,7.67202205 1.31494068,7.22903185 C1.51673503,6.80126619 1.80433321,6.41505245 2.16971651,6.08106183 C2.53788424,5.74454638 2.96493157,5.47960034 3.43899175,5.29357165 C3.93541111,5.09877076 4.46060702,5 5,5 Z M5,1 C6.10279836,1 7,1.89720164 7,3 C7,4.10279836 6.10279836,5 5,5 C3.89719137,5 3,4.10279836 3,3 C3,1.89720164 3.89720164,1 5,1 Z" id="形状结合"></path>
                </g>
                <text id="09:10" font-family="PingFangSC-Regular, PingFang SC" font-size="12" font-weight="normal" fill="#8F9598">
                    <tspan x="160.42" y="19">09:10</tspan>
                </text>
                <rect id="Rectangle-15" fill="#EEEEEE" x="0" y="27" width="200" height="1"></rect>
                <text id="王光杰" font-family="PingFangSC-Medium, PingFang SC" font-size="12" font-weight="400" fill="#111111">
                    <tspan x="24" y="18">赵燕</tspan>
                </text>
            </g>
            <g id="编组-4" transform="translate(88.000000, 202.000000)">
                <rect id="Rectangle-15" fill="#FFFFFF" x="0" y="0" width="200" height="28"></rect>
                <g id="编组-12" transform="translate(8.000000, 9.000000)" fill="#4A4D4C" fill-rule="nonzero">
                    <path d="M1.16115533,7.11994882 C1.33600072,7.20642235 1.61007397,7.00953062 1.86661001,6.6481519 C1.96820345,7.04190092 2.21957424,7.39841441 2.57862068,7.68440731 C2.20202794,7.81611045 1.95602249,8.03117627 1.95602249,8.27501673 C1.95602249,8.67588814 2.62168317,9 3.44323732,9 C4.18426914,9 4.79798463,8.73659841 4.91126954,8.3903166 C4.94169076,8.38988086 5.05871025,8.38988086 5.088206,8.3903166 C5.2019713,8.73616296 5.81613163,9 6.55669298,9 C7.37824134,9 8.04390781,8.67543623 8.04390781,8.27501673 C8.04390781,8.03160938 7.79815041,7.81611045 7.42130631,7.68440731 C7.77987814,7.39796486 8.03216672,7.04190092 8.13329135,6.6481519 C8.38983566,7.00953297 8.66322346,7.20642235 8.83828879,7.11994882 C9.09199374,6.99445016 9.04191555,6.3222473 8.72501959,5.61856855 C8.47691067,5.06517742 8.14031615,4.65769583 7.88286976,4.56769087 C7.88661658,4.532328 7.88848915,4.49680948 7.88848043,4.46126927 C7.88848043,4.24754037 7.82576676,4.04978006 7.71855141,3.88881982 C7.72042257,3.87640498 7.72042257,3.8635463 7.72042257,3.85112347 C7.72042257,3.75270305 7.69562325,3.66046833 7.65345292,3.58064883 C7.58843345,2.14222975 6.59974036,1 4.9999517,1 C3.39922044,1 2.41009211,2.14223758 2.34572286,3.58064883 C2.30312067,3.6609124 2.27854998,3.7531393 2.27855006,3.85112347 C2.27855006,3.86354638 2.27948706,3.87641297 2.27996119,3.88881982 C2.17370026,4.04978006 2.11096649,4.24709159 2.11096649,4.46126927 C2.11096649,4.49674142 2.11237763,4.53220292 2.11565428,4.56769082 C1.86005504,4.65769344 1.52230626,5.06563006 1.27467029,5.6185685 C0.958934194,6.32270313 0.907672792,6.99444938 1.16115533,7.11994882 Z" id="路径"></path>
                </g>
                <circle id="Oval-4" fill="#F9483A" cx="186" cy="14" r="4"></circle>
                <rect id="Rectangle-15" fill="#EEEEEE" x="0" y="27" width="200" height="1"></rect>
                <text id="蔡伟QQ房间" font-family="PingFangSC-Medium, PingFang SC" font-size="12" font-weight="400" fill="#111111">
                    <tspan x="24" y="18">蔡伟QQ房间</tspan>
                </text>
            </g>
            <g id="编组-4" transform="translate(88.000000, 230.000000)">
                <rect id="Rectangle-15" fill="#FFFFFF" x="0" y="0" width="200" height="28"></rect>
                <path d="M189.127273,11 L189.418182,11.2641509 L188.690909,11.990566 C188.945455,12.3950472 189.144318,12.9006486 189.190057,13.41889 L189.2,13.6415094 L189.2,16.1509434 C189.2,16.4150943 189.418182,16.6132075 189.709091,16.6132075 C189.833766,16.6132075 189.958442,16.6617251 189.991519,16.7587601 L190,16.8113208 L190,16.9433962 C190,17.0566038 189.893135,17.1698113 189.771005,17.199846 L189.709091,17.2075472 L186.987317,17.2092458 C186.911712,17.7972692 186.506538,18 186,18 C185.493462,18 185.088288,17.7972692 185.012683,17.2092458 L183.090909,17.2075472 L182.290909,18 L182,17.7358491 L189.127273,11 Z M186.028169,10 C186.348271,10 186.610173,10.2203857 186.655147,10.5108941 L186.661972,10.6 L186.869133,10.6614189 C187.2079,10.7712342 187.515871,10.9199223 187.818708,11.1317784 L188,11.2666667 L183,16 L183,13.4666667 C183,12.1275362 183.902047,10.9713926 185.213098,10.6400153 L185.394366,10.6 L185.401192,10.5108941 C185.446165,10.2203857 185.708067,10 186.028169,10 Z" id="ic_chatlist_mute" fill="#8F9598" fill-rule="nonzero"></path>
                <g id="编组-10" transform="translate(8.000000, 9.000000)" fill="#4A4D4C" fill-rule="nonzero">
                    <path d="M4,1.125 C5.10279836,1.125 6,2.02220164 6,3.125 C6,4.02617563 5.40087601,4.79006002 4.58002468,5.0392565 C4.91574241,5.08378673 5.2440601,5.16868162 5.56058999,5.29252503 C6.03490113,5.47812213 6.4620321,5.74257183 6.83008034,6.07854779 C7.19566679,6.41226866 7.48333667,6.79849319 7.68510712,7.22650701 C7.89404781,7.66976697 8,8.13577203 8,8.61156354 C8,8.82608836 7.8073716,9 7.56978582,9 L0.430214181,9 C0.192616449,9 0,8.82608836 0,8.61156354 C0,8.13716393 0.105964143,7.67202205 0.314940681,7.22903185 C0.516735033,6.80126619 0.804333213,6.41505245 1.16971651,6.08106183 C1.53788424,5.74454638 1.96493157,5.47960034 2.43899175,5.29357165 C2.75572751,5.16928075 3.08417809,5.08408333 3.42055656,5.03869125 C2.59911713,4.79006002 2,4.02617563 2,3.125 C2,2.02220164 2.89720164,1.125 4,1.125 Z M6.71122434,0.00791798679 C7.12274853,0.096888901 7.5009595,0.311755465 7.80473431,0.634410471 C8.21326609,1.0683333 8.43825214,1.64524767 8.43825214,2.25890619 C8.43825214,2.87256471 8.21326609,3.44947909 7.80473431,3.88340192 C7.72886648,3.96398508 7.64835567,4.03784493 7.56384252,4.10469937 C7.62069005,4.12569669 7.67699398,4.14990811 7.73290517,4.17564548 C8.17759522,4.38032674 8.57805656,4.67202854 8.92316969,5.0426243 C9.26598183,5.410752 9.53572932,5.836777 9.72490849,6.30888869 C9.86709323,6.66376104 9.9583957,7.03184058 9.99773907,7.40764938 C10.0190184,7.61084178 9.88766142,7.79121348 9.70612421,7.82878753 L9.63589567,7.83594983 C9.45034366,7.83594983 9.29490844,7.68762484 9.27429029,7.49175639 C9.24263197,7.19104915 9.16935197,6.89620508 9.05530039,6.61158243 C8.9022455,6.22964559 8.68370899,5.88464552 8.40577771,5.5861776 C7.90743967,5.05103982 7.27325308,4.7237015 6.59345492,4.64472326 C6.40956915,4.62335339 6.27026346,4.45854651 6.27026346,4.26206405 L6.27026346,4.25909033 C6.27026346,4.22992755 6.27329697,4.20158602 6.27903389,4.17438005 L6.27530748,4.13279738 C6.27530748,3.94955823 6.39519652,3.78913368 6.56418826,3.75230526 C7.21758748,3.60991568 7.71053011,2.9944031 7.71053011,2.25890619 C7.71053011,1.52340929 7.21758748,0.907884668 6.56418826,0.765507127 C6.4193382,0.733939909 6.31056359,0.611567371 6.28244126,0.461855434 L6.27530748,0.385015006 C6.27530748,0.141025216 6.48612494,-0.0407451303 6.71122434,0.00791798679 Z" id="team"></path>
                </g>
                <rect id="Rectangle-15" fill="#EEEEEE" x="0" y="27" width="200" height="1"></rect>
                <text id="一个群" font-family="PingFangSC-Medium, PingFang SC" font-size="12" font-weight="400" fill="#111111">
                    <tspan x="24" y="18">一个群</tspan>
                </text>
            </g>
            <g id="编组-4" transform="translate(88.000000, 258.000000)">
                <rect id="Rectangle-15" fill="#FFFFFF" x="0" y="0" width="200" height="28"></rect>
                <g id="编组-12" transform="translate(8.000000, 9.000000)" fill="#4A4D4C" fill-rule="nonzero">
                    <path d="M1.16115533,7.11994882 C1.33600072,7.20642235 1.61007397,7.00953062 1.86661001,6.6481519 C1.96820345,7.04190092 2.21957424,7.39841441 2.57862068,7.68440731 C2.20202794,7.81611045 1.95602249,8.03117627 1.95602249,8.27501673 C1.95602249,8.67588814 2.62168317,9 3.44323732,9 C4.18426914,9 4.79798463,8.73659841 4.91126954,8.3903166 C4.94169076,8.38988086 5.05871025,8.38988086 5.088206,8.3903166 C5.2019713,8.73616296 5.81613163,9 6.55669298,9 C7.37824134,9 8.04390781,8.67543623 8.04390781,8.27501673 C8.04390781,8.03160938 7.79815041,7.81611045 7.42130631,7.68440731 C7.77987814,7.39796486 8.03216672,7.04190092 8.13329135,6.6481519 C8.38983566,7.00953297 8.66322346,7.20642235 8.83828879,7.11994882 C9.09199374,6.99445016 9.04191555,6.3222473 8.72501959,5.61856855 C8.47691067,5.06517742 8.14031615,4.65769583 7.88286976,4.56769087 C7.88661658,4.532328 7.88848915,4.49680948 7.88848043,4.46126927 C7.88848043,4.24754037 7.82576676,4.04978006 7.71855141,3.88881982 C7.72042257,3.87640498 7.72042257,3.8635463 7.72042257,3.85112347 C7.72042257,3.75270305 7.69562325,3.66046833 7.65345292,3.58064883 C7.58843345,2.14222975 6.59974036,1 4.9999517,1 C3.39922044,1 2.41009211,2.14223758 2.34572286,3.58064883 C2.30312067,3.6609124 2.27854998,3.7531393 2.27855006,3.85112347 C2.27855006,3.86354638 2.27948706,3.87641297 2.27996119,3.88881982 C2.17370026,4.04978006 2.11096649,4.24709159 2.11096649,4.46126927 C2.11096649,4.49674142 2.11237763,4.53220292 2.11565428,4.56769082 C1.86005504,4.65769344 1.52230626,5.06563006 1.27467029,5.6185685 C0.958934194,6.32270313 0.907672792,6.99444938 1.16115533,7.11994882 Z" id="路径"></path>
                </g>
                <g id="消息提醒" transform="translate(159.000000, 6.000000)">
                    <rect id="Rectangle-11" fill="#F9483A" x="0" y="0" width="31" height="16" rx="8"></rect>
                    <text id="99+" font-family="PingFangSC-Medium, PingFang SC" font-size="10" font-weight="400" line-spacing="10" fill="#FFFFFF">
                        <tspan x="6" y="13">99+</tspan>
                    </text>
                </g>
                <rect id="Rectangle-15" fill="#EEEEEE" x="0" y="27" width="200" height="1"></rect>
                <text id="QQ房间" font-family="PingFangSC-Medium, PingFang SC" font-size="12" font-weight="400" fill="#111111">
                    <tspan x="24" y="18">QQ房间</tspan>
                </text>
            </g>
            <g id="编组-4" transform="translate(88.000000, 286.000000)">
                <rect id="Rectangle-15" fill="#FFFFFF" x="0" y="0" width="200" height="28"></rect>
                <g id="编组-10" transform="translate(8.000000, 9.000000)" fill="#4A4D4C" fill-rule="nonzero">
                    <path d="M4,1.125 C5.10279836,1.125 6,2.02220164 6,3.125 C6,4.02617563 5.40087601,4.79006002 4.58002468,5.0392565 C4.91574241,5.08378673 5.2440601,5.16868162 5.56058999,5.29252503 C6.03490113,5.47812213 6.4620321,5.74257183 6.83008034,6.07854779 C7.19566679,6.41226866 7.48333667,6.79849319 7.68510712,7.22650701 C7.89404781,7.66976697 8,8.13577203 8,8.61156354 C8,8.82608836 7.8073716,9 7.56978582,9 L0.430214181,9 C0.192616449,9 0,8.82608836 0,8.61156354 C0,8.13716393 0.105964143,7.67202205 0.314940681,7.22903185 C0.516735033,6.80126619 0.804333213,6.41505245 1.16971651,6.08106183 C1.53788424,5.74454638 1.96493157,5.47960034 2.43899175,5.29357165 C2.75572751,5.16928075 3.08417809,5.08408333 3.42055656,5.03869125 C2.59911713,4.79006002 2,4.02617563 2,3.125 C2,2.02220164 2.89720164,1.125 4,1.125 Z M6.71122434,0.00791798679 C7.12274853,0.096888901 7.5009595,0.311755465 7.80473431,0.634410471 C8.21326609,1.0683333 8.43825214,1.64524767 8.43825214,2.25890619 C8.43825214,2.87256471 8.21326609,3.44947909 7.80473431,3.88340192 C7.72886648,3.96398508 7.64835567,4.03784493 7.56384252,4.10469937 C7.62069005,4.12569669 7.67699398,4.14990811 7.73290517,4.17564548 C8.17759522,4.38032674 8.57805656,4.67202854 8.92316969,5.0426243 C9.26598183,5.410752 9.53572932,5.836777 9.72490849,6.30888869 C9.86709323,6.66376104 9.9583957,7.03184058 9.99773907,7.40764938 C10.0190184,7.61084178 9.88766142,7.79121348 9.70612421,7.82878753 L9.63589567,7.83594983 C9.45034366,7.83594983 9.29490844,7.68762484 9.27429029,7.49175639 C9.24263197,7.19104915 9.16935197,6.89620508 9.05530039,6.61158243 C8.9022455,6.22964559 8.68370899,5.88464552 8.40577771,5.5861776 C7.90743967,5.05103982 7.27325308,4.7237015 6.59345492,4.64472326 C6.40956915,4.62335339 6.27026346,4.45854651 6.27026346,4.26206405 L6.27026346,4.25909033 C6.27026346,4.22992755 6.27329697,4.20158602 6.27903389,4.17438005 L6.27530748,4.13279738 C6.27530748,3.94955823 6.39519652,3.78913368 6.56418826,3.75230526 C7.21758748,3.60991568 7.71053011,2.9944031 7.71053011,2.25890619 C7.71053011,1.52340929 7.21758748,0.907884668 6.56418826,0.765507127 C6.4193382,0.733939909 6.31056359,0.611567371 6.28244126,0.461855434 L6.27530748,0.385015006 C6.27530748,0.141025216 6.48612494,-0.0407451303 6.71122434,0.00791798679 Z" id="team"></path>
                </g>
                <text id="09:10" font-family="PingFangSC-Regular, PingFang SC" font-size="12" font-weight="normal" fill="#8F9598">
                    <tspan x="160.42" y="19">09:10</tspan>
                </text>
                <rect id="Rectangle-15" fill="#EEEEEE" x="0" y="27" width="200" height="1"></rect>
                <text id="一个群" font-family="PingFangSC-Medium, PingFang SC" font-size="12" font-weight="400" fill="#111111">
                    <tspan x="24" y="18">一个群</tspan>
                </text>
            </g>
            <g id="编组-4" transform="translate(88.000000, 314.000000)">
                <rect id="Rectangle-15" fill="#EEEEEE" x="0" y="0" width="200" height="28"></rect>
                <text id="广州银行" font-family="PingFangSC-Regular, PingFang SC" font-size="12" font-weight="normal" fill="#409EFF">
                    <tspan x="66" y="18">广州银行</tspan>
                </text>
                <g id="编组-11" transform="translate(8.000000, 9.000000)" fill="#4A4D4C" fill-rule="nonzero">
                    <path d="M5,5 C5.53944078,5 6.06449329,5.09842548 6.56058999,5.29252503 C7.03490113,5.47812213 7.4620321,5.74257183 7.83008034,6.07854779 C8.19566679,6.41226866 8.48333667,6.79849319 8.68510712,7.22650701 C8.89404781,7.66976697 9,8.13577203 9,8.61156354 C9,8.82608836 8.8073716,9 8.56978582,9 L1.43021418,9 C1.19261645,9 1,8.82608836 1,8.61156354 C1,8.13716393 1.10596414,7.67202205 1.31494068,7.22903185 C1.51673503,6.80126619 1.80433321,6.41505245 2.16971651,6.08106183 C2.53788424,5.74454638 2.96493157,5.47960034 3.43899175,5.29357165 C3.93541111,5.09877076 4.46060702,5 5,5 Z M5,1 C6.10279836,1 7,1.89720164 7,3 C7,4.10279836 6.10279836,5 5,5 C3.89719137,5 3,4.10279836 3,3 C3,1.89720164 3.89720164,1 5,1 Z" id="形状结合"></path>
                </g>
                <text id="09:10" font-family="PingFangSC-Regular, PingFang SC" font-size="12" font-weight="normal" fill="#8F9598">
                    <tspan x="160.42" y="19">09:10</tspan>
                </text>
                <rect id="Rectangle-15" fill="#EEEEEE" x="0" y="27" width="200" height="1"></rect>
                <text id="王光杰" font-family="PingFangSC-Medium, PingFang SC" font-size="12" font-weight="400" fill="#1951AE">
                    <tspan x="24" y="18">文国扬</tspan>
                </text>
            </g>
            <g id="编组-4" transform="translate(88.000000, 342.000000)">
                <rect id="Rectangle-15" fill="#FFFFFF" x="0" y="0" width="200" height="28"></rect>
                <g id="编组-11" transform="translate(8.000000, 9.000000)" fill="#4A4D4C" fill-rule="nonzero">
                    <path d="M5,5 C5.53944078,5 6.06449329,5.09842548 6.56058999,5.29252503 C7.03490113,5.47812213 7.4620321,5.74257183 7.83008034,6.07854779 C8.19566679,6.41226866 8.48333667,6.79849319 8.68510712,7.22650701 C8.89404781,7.66976697 9,8.13577203 9,8.61156354 C9,8.82608836 8.8073716,9 8.56978582,9 L1.43021418,9 C1.19261645,9 1,8.82608836 1,8.61156354 C1,8.13716393 1.10596414,7.67202205 1.31494068,7.22903185 C1.51673503,6.80126619 1.80433321,6.41505245 2.16971651,6.08106183 C2.53788424,5.74454638 2.96493157,5.47960034 3.43899175,5.29357165 C3.93541111,5.09877076 4.46060702,5 5,5 Z M5,1 C6.10279836,1 7,1.89720164 7,3 C7,4.10279836 6.10279836,5 5,5 C3.89719137,5 3,4.10279836 3,3 C3,1.89720164 3.89720164,1 5,1 Z" id="形状结合"></path>
                </g>
                <g id="消息提醒" transform="translate(174.000000, 6.000000)">
                    <rect id="Rectangle-11" fill="#F9483A" x="0" y="0" width="16" height="16" rx="8"></rect>
                    <text id="1" font-family="PingFangSC-Medium, PingFang SC" font-size="10" font-weight="400" line-spacing="10" fill="#FFFFFF">
                        <tspan x="5.57855288" y="13.2966297">1</tspan>
                    </text>
                </g>
                <rect id="Rectangle-15" fill="#EEEEEE" x="0" y="27" width="200" height="1"></rect>
                <text id="李2志李志李志李志李志…" font-family="PingFangSC-Medium, PingFang SC" font-size="12" font-weight="400" fill="#111111">
                    <tspan x="24" y="19">李2志李志李志李志李志…</tspan>
                </text>
            </g>
            <g id="编组-4" transform="translate(88.000000, 370.000000)">
                <rect id="Rectangle-15" fill="#FFFFFF" x="0" y="0" width="200" height="28"></rect>
                <text id="广州银行" font-family="PingFangSC-Regular, PingFang SC" font-size="12" font-weight="normal" fill="#409EFF">
                    <tspan x="66" y="19">广州银行</tspan>
                </text>
                <g id="编组-11" transform="translate(8.000000, 9.000000)" fill="#4A4D4C" fill-rule="nonzero">
                    <path d="M5,5 C5.53944078,5 6.06449329,5.09842548 6.56058999,5.29252503 C7.03490113,5.47812213 7.4620321,5.74257183 7.83008034,6.07854779 C8.19566679,6.41226866 8.48333667,6.79849319 8.68510712,7.22650701 C8.89404781,7.66976697 9,8.13577203 9,8.61156354 C9,8.82608836 8.8073716,9 8.56978582,9 L1.43021418,9 C1.19261645,9 1,8.82608836 1,8.61156354 C1,8.13716393 1.10596414,7.67202205 1.31494068,7.22903185 C1.51673503,6.80126619 1.80433321,6.41505245 2.16971651,6.08106183 C2.53788424,5.74454638 2.96493157,5.47960034 3.43899175,5.29357165 C3.93541111,5.09877076 4.46060702,5 5,5 Z M5,1 C6.10279836,1 7,1.89720164 7,3 C7,4.10279836 6.10279836,5 5,5 C3.89719137,5 3,4.10279836 3,3 C3,1.89720164 3.89720164,1 5,1 Z" id="形状结合"></path>
                </g>
                <text id="09:10" font-family="PingFangSC-Regular, PingFang SC" font-size="12" font-weight="normal" fill="#8F9598">
                    <tspan x="160.42" y="19">09:10</tspan>
                </text>
                <rect id="Rectangle-15" fill="#EEEEEE" x="0" y="27" width="200" height="1"></rect>
                <text id="王光杰" font-family="PingFangSC-Medium, PingFang SC" font-size="12" font-weight="400" fill="#111111">
                    <tspan x="24" y="18">孙国平</tspan>
                </text>
            </g>
            <g id="编组-4" transform="translate(88.000000, 398.000000)">
                <rect id="Rectangle-15" fill="#FFFFFF" x="0" y="0" width="200" height="28"></rect>
                <text id="广州银行" font-family="PingFangSC-Regular, PingFang SC" font-size="12" font-weight="normal" fill="#409EFF">
                    <tspan x="54" y="19">广州银行</tspan>
                </text>
                <g id="编组-11" transform="translate(8.000000, 9.000000)" fill="#4A4D4C" fill-rule="nonzero">
                    <path d="M5,5 C5.53944078,5 6.06449329,5.09842548 6.56058999,5.29252503 C7.03490113,5.47812213 7.4620321,5.74257183 7.83008034,6.07854779 C8.19566679,6.41226866 8.48333667,6.79849319 8.68510712,7.22650701 C8.89404781,7.66976697 9,8.13577203 9,8.61156354 C9,8.82608836 8.8073716,9 8.56978582,9 L1.43021418,9 C1.19261645,9 1,8.82608836 1,8.61156354 C1,8.13716393 1.10596414,7.67202205 1.31494068,7.22903185 C1.51673503,6.80126619 1.80433321,6.41505245 2.16971651,6.08106183 C2.53788424,5.74454638 2.96493157,5.47960034 3.43899175,5.29357165 C3.93541111,5.09877076 4.46060702,5 5,5 Z M5,1 C6.10279836,1 7,1.89720164 7,3 C7,4.10279836 6.10279836,5 5,5 C3.89719137,5 3,4.10279836 3,3 C3,1.89720164 3.89720164,1 5,1 Z" id="形状结合"></path>
                </g>
                <text id="2019/08/09" font-family="PingFangSC-Regular, PingFang SC" font-size="12" font-weight="normal" fill="#8F9598">
                    <tspan x="122.788" y="19">2019/08/09</tspan>
                </text>
                <rect id="Rectangle-15" fill="#EEEEEE" x="0" y="27" width="200" height="1"></rect>
                <text id="王光杰" font-family="PingFangSC-Medium, PingFang SC" font-size="12" font-weight="400" fill="#111111">
                    <tspan x="24" y="18">赵慧</tspan>
                </text>
            </g>
            <g id="编组-4" transform="translate(88.000000, 426.000000)">
                <rect id="Rectangle-15" fill="#FFFFFF" x="0" y="0" width="200" height="28"></rect>
                <g id="编组-11" transform="translate(8.000000, 9.000000)" fill="#4A4D4C" fill-rule="nonzero">
                    <path d="M5,5 C5.53944078,5 6.06449329,5.09842548 6.56058999,5.29252503 C7.03490113,5.47812213 7.4620321,5.74257183 7.83008034,6.07854779 C8.19566679,6.41226866 8.48333667,6.79849319 8.68510712,7.22650701 C8.89404781,7.66976697 9,8.13577203 9,8.61156354 C9,8.82608836 8.8073716,9 8.56978582,9 L1.43021418,9 C1.19261645,9 1,8.82608836 1,8.61156354 C1,8.13716393 1.10596414,7.67202205 1.31494068,7.22903185 C1.51673503,6.80126619 1.80433321,6.41505245 2.16971651,6.08106183 C2.53788424,5.74454638 2.96493157,5.47960034 3.43899175,5.29357165 C3.93541111,5.09877076 4.46060702,5 5,5 Z M5,1 C6.10279836,1 7,1.89720164 7,3 C7,4.10279836 6.10279836,5 5,5 C3.89719137,5 3,4.10279836 3,3 C3,1.89720164 3.89720164,1 5,1 Z" id="形状结合"></path>
                </g>
                <text id="2019/08/09" font-family="PingFangSC-Regular, PingFang SC" font-size="12" font-weight="normal" fill="#8F9598">
                    <tspan x="122.788" y="19">2019/08/09</tspan>
                </text>
                <rect id="Rectangle-15" fill="#EEEEEE" x="0" y="27" width="200" height="1"></rect>
                <text id="王光杰" font-family="PingFangSC-Medium, PingFang SC" font-size="12" font-weight="400" fill="#111111">
                    <tspan x="24" y="18">武天芮</tspan>
                </text>
            </g>
            <g id="编组-9" transform="translate(88.000000, 88.000000)">
                <rect id="Rectangle-2" fill="#FFFFFF" x="0" y="0" width="200" height="30"></rect>
                <text id="消息" font-family="PingFangSC-Medium, PingFang SC" font-size="14" font-weight="400" fill="#111111">
                    <tspan x="8" y="20">消息</tspan>
                </text>
                <g id="编组-8" transform="translate(172.000000, 4.000000)">
                    <rect id="Rectangle-Copy-6" fill-opacity="0" fill="#136C5E" transform="translate(11.000000, 11.000000) rotate(-360.000000) translate(-11.000000, -11.000000) " x="0" y="0" width="22" height="22"></rect>
                    <g id="编组-6" transform="translate(6.000000, 7.000000)" fill="#4A4D4C" fill-opacity="0.33">
                        <path d="M5,6 L8,9 L2,9 L5,6 Z M9.5,4 C9.77614237,4 10,4.22385763 10,4.5 C10,4.77614237 9.77614237,5 9.5,5 L0.5,5 C0.223857625,5 3.38176876e-17,4.77614237 0,4.5 C-3.38176876e-17,4.22385763 0.223857625,4 0.5,4 L9.5,4 Z M8,4.4408921e-16 L5,3 L2,-4.4408921e-16 L8,4.4408921e-16 Z" id="形状结合"></path>
                    </g>
                </g>
                <g id="编组-7" transform="translate(150.000000, 4.000000)" fill="#111111">
                    <path d="M8,13 L14,13 L11,16 L8,13 Z M15.5,11 C15.7761424,11 16,11.2238576 16,11.5 C16,11.7761424 15.7761424,12 15.5,12 L6.5,12 C6.22385763,12 6,11.7761424 6,11.5 C6,11.2238576 6.22385763,11 6.5,11 L15.5,11 Z M11,7 L14,10 L8,10 L11,7 Z" id="形状结合"></path>
                </g>
                <rect id="Rectangle-2" fill="#EEEEEE" x="0" y="29" width="200" height="1"></rect>
            </g>
            <rect id="Rectangle-15" fill="#FFFFFF" x="426" y="88" width="200" height="576"></rect>
            <g id="编组-9" transform="translate(426.000000, 88.000000)">
                <rect id="Rectangle-2" fill="#FFFFFF" x="0" y="0" width="200" height="30"></rect>
                <text id="消息" font-family="PingFangSC-Medium, PingFang SC" font-size="14" font-weight="400" fill="#111111">
                    <tspan x="8" y="20">消息</tspan>
                </text>
                <g id="编组-8" transform="translate(172.000000, 4.000000)">
                    <rect id="Rectangle-Copy-6" fill-opacity="0" fill="#136C5E" transform="translate(11.000000, 11.000000) rotate(-360.000000) translate(-11.000000, -11.000000) " x="0" y="0" width="22" height="22"></rect>
                    <g id="编组-6" transform="translate(6.000000, 7.000000)" fill="#111111">
                        <path d="M5,6 L8,9 L2,9 L5,6 Z M9.5,4 C9.77614237,4 10,4.22385763 10,4.5 C10,4.77614237 9.77614237,5 9.5,5 L0.5,5 C0.223857625,5 3.38176876e-17,4.77614237 0,4.5 C-3.38176876e-17,4.22385763 0.223857625,4 0.5,4 L9.5,4 Z M8,4.4408921e-16 L5,3 L2,-4.4408921e-16 L8,4.4408921e-16 Z" id="形状结合"></path>
                    </g>
                </g>
                <g id="编组-7" transform="translate(150.000000, 4.000000)" fill="#111111">
                    <path d="M8,13 L14,13 L11,16 L8,13 Z M15.5,11 C15.7761424,11 16,11.2238576 16,11.5 C16,11.7761424 15.7761424,12 15.5,12 L6.5,12 C6.22385763,12 6,11.7761424 6,11.5 C6,11.2238576 6.22385763,11 6.5,11 L15.5,11 Z M11,7 L14,10 L8,10 L11,7 Z" id="形状结合"></path>
                </g>
                <rect id="Rectangle-2" fill="#EEEEEE" x="0" y="29" width="200" height="1"></rect>
            </g>
            <g id="编组-4" transform="translate(426.000000, 118.000000)">
                <rect id="Rectangle-15" fill="#FFFFFF" x="0" y="0" width="200" height="46"></rect>
                <g id="编组-11" transform="translate(8.000000, 9.000000)" fill="#4A4D4C" fill-rule="nonzero">
                    <path d="M5,5 C5.53944078,5 6.06449329,5.09842548 6.56058999,5.29252503 C7.03490113,5.47812213 7.4620321,5.74257183 7.83008034,6.07854779 C8.19566679,6.41226866 8.48333667,6.79849319 8.68510712,7.22650701 C8.89404781,7.66976697 9,8.13577203 9,8.61156354 C9,8.82608836 8.8073716,9 8.56978582,9 L1.43021418,9 C1.19261645,9 1,8.82608836 1,8.61156354 C1,8.13716393 1.10596414,7.67202205 1.31494068,7.22903185 C1.51673503,6.80126619 1.80433321,6.41505245 2.16971651,6.08106183 C2.53788424,5.74454638 2.96493157,5.47960034 3.43899175,5.29357165 C3.93541111,5.09877076 4.46060702,5 5,5 Z M5,1 C6.10279836,1 7,1.89720164 7,3 C7,4.10279836 6.10279836,5 5,5 C3.89719137,5 3,4.10279836 3,3 C3,1.89720164 3.89720164,1 5,1 Z" id="形状结合"></path>
                </g>
                <path d="M2.5,2 L7.79289322,2 C8.06903559,2 8.29289322,2.22385763 8.29289322,2.5 L8.29289322,7.79289322 C8.29289322,8.06903559 8.06903559,8.29289322 7.79289322,8.29289322 C7.66028497,8.29289322 7.53310802,8.2402148 7.43933983,8.14644661 L2.14644661,2.85355339 C1.95118446,2.65829124 1.95118446,2.34170876 2.14644661,2.14644661 C2.2402148,2.05267842 2.36739176,2 2.5,2 Z" id="形状" fill="#1951AE" fill-rule="nonzero" transform="translate(5.146447, 5.146447) scale(-1, 1) translate(-5.146447, -5.146447) "></path>
                <text id="09:10" font-family="PingFangSC-Regular, PingFang SC" font-size="12" font-weight="normal" fill="#8F9598">
                    <tspan x="160.42" y="18">09:10</tspan>
                </text>
                <text id="邓紫博：一代数据可视化解决方…" font-family="PingFangSC-Regular, PingFang SC" font-size="12" font-weight="normal" fill="#8F9598">
                    <tspan x="10" y="37">邓紫博：一代数据可视化解决方…</tspan>
                </text>
                <rect id="Rectangle-15" fill="#EEEEEE" x="0" y="45" width="200" height="1"></rect>
                <text id="王光杰" font-family="PingFangSC-Medium, PingFang SC" font-size="12" font-weight="400" fill="#111111">
                    <tspan x="24" y="18">王光杰</tspan>
                </text>
            </g>
            <g id="编组-4" transform="translate(426.000000, 164.000000)">
                <rect id="Rectangle-15" fill="#EEEEEE" x="0" y="0" width="200" height="46"></rect>
                <text id="外部" font-family="PingFangSC-Regular, PingFang SC" font-size="10" font-weight="normal" fill="#409EFF">
                    <tspan x="114" y="17">外部</tspan>
                </text>
                <text id="[有人@我]-你好！！" font-family="PingFangSC-Regular, PingFang SC" font-size="12" font-weight="normal">
                    <tspan x="10" y="37" fill="#F9483A">[有人@我]</tspan>
                    <tspan x="64.288" y="37" fill="#8F9598"> 你好！！</tspan>
                </text>
                <g id="编组-10" transform="translate(8.000000, 9.000000)" fill="#4A4D4C" fill-rule="nonzero">
                    <path d="M4,1.125 C5.10279836,1.125 6,2.02220164 6,3.125 C6,4.02617563 5.40087601,4.79006002 4.58002468,5.0392565 C4.91574241,5.08378673 5.2440601,5.16868162 5.56058999,5.29252503 C6.03490113,5.47812213 6.4620321,5.74257183 6.83008034,6.07854779 C7.19566679,6.41226866 7.48333667,6.79849319 7.68510712,7.22650701 C7.89404781,7.66976697 8,8.13577203 8,8.61156354 C8,8.82608836 7.8073716,9 7.56978582,9 L0.430214181,9 C0.192616449,9 0,8.82608836 0,8.61156354 C0,8.13716393 0.105964143,7.67202205 0.314940681,7.22903185 C0.516735033,6.80126619 0.804333213,6.41505245 1.16971651,6.08106183 C1.53788424,5.74454638 1.96493157,5.47960034 2.43899175,5.29357165 C2.75572751,5.16928075 3.08417809,5.08408333 3.42055656,5.03869125 C2.59911713,4.79006002 2,4.02617563 2,3.125 C2,2.02220164 2.89720164,1.125 4,1.125 Z M6.71122434,0.00791798679 C7.12274853,0.096888901 7.5009595,0.311755465 7.80473431,0.634410471 C8.21326609,1.0683333 8.43825214,1.64524767 8.43825214,2.25890619 C8.43825214,2.87256471 8.21326609,3.44947909 7.80473431,3.88340192 C7.72886648,3.96398508 7.64835567,4.03784493 7.56384252,4.10469937 C7.62069005,4.12569669 7.67699398,4.14990811 7.73290517,4.17564548 C8.17759522,4.38032674 8.57805656,4.67202854 8.92316969,5.0426243 C9.26598183,5.410752 9.53572932,5.836777 9.72490849,6.30888869 C9.86709323,6.66376104 9.9583957,7.03184058 9.99773907,7.40764938 C10.0190184,7.61084178 9.88766142,7.79121348 9.70612421,7.82878753 L9.63589567,7.83594983 C9.45034366,7.83594983 9.29490844,7.68762484 9.27429029,7.49175639 C9.24263197,7.19104915 9.16935197,6.89620508 9.05530039,6.61158243 C8.9022455,6.22964559 8.68370899,5.88464552 8.40577771,5.5861776 C7.90743967,5.05103982 7.27325308,4.7237015 6.59345492,4.64472326 C6.40956915,4.62335339 6.27026346,4.45854651 6.27026346,4.26206405 L6.27026346,4.25909033 C6.27026346,4.22992755 6.27329697,4.20158602 6.27903389,4.17438005 L6.27530748,4.13279738 C6.27530748,3.94955823 6.39519652,3.78913368 6.56418826,3.75230526 C7.21758748,3.60991568 7.71053011,2.9944031 7.71053011,2.25890619 C7.71053011,1.52340929 7.21758748,0.907884668 6.56418826,0.765507127 C6.4193382,0.733939909 6.31056359,0.611567371 6.28244126,0.461855434 L6.27530748,0.385015006 C6.27530748,0.141025216 6.48612494,-0.0407451303 6.71122434,0.00791798679 Z" id="team"></path>
                </g>
                <path d="M2.5,2 L7.79289322,2 C8.06903559,2 8.29289322,2.22385763 8.29289322,2.5 L8.29289322,7.79289322 C8.29289322,8.06903559 8.06903559,8.29289322 7.79289322,8.29289322 C7.66028497,8.29289322 7.53310802,8.2402148 7.43933983,8.14644661 L2.14644661,2.85355339 C1.95118446,2.65829124 1.95118446,2.34170876 2.14644661,2.14644661 C2.2402148,2.05267842 2.36739176,2 2.5,2 Z" id="形状" fill="#1951AE" fill-rule="nonzero" transform="translate(5.146447, 5.146447) scale(-1, 1) translate(-5.146447, -5.146447) "></path>
                <text id="09:10" font-family="PingFangSC-Regular, PingFang SC" font-size="12" font-weight="normal" fill="#8F9598">
                    <tspan x="160.42" y="18">09:10</tspan>
                </text>
                <rect id="Rectangle-15" fill="#EEEEEE" x="0" y="45" width="200" height="1"></rect>
                <text id="公司内部研讨群" font-family="PingFangSC-Medium, PingFang SC" font-size="12" font-weight="400" fill="#1951AE">
                    <tspan x="24" y="18">公司内部研讨群</tspan>
                </text>
            </g>
            <g id="编组-4" transform="translate(426.000000, 210.000000)">
                <rect id="Rectangle-15" fill="#FFFFFF" x="0" y="0" width="200" height="46"></rect>
                <g id="编组-19" transform="translate(8.000000, 27.000000)" fill="#8F9598">
                    <path d="M5,1 L5,3 L7,3 L7,9 L5,9 L5,11 L0,6 L5,1 Z M12,3 L12,9 L11,9 L11,3 L12,3 Z M10,3 L10,9 L8,9 L8,3 L10,3 Z" id="形状结合"></path>
                </g>
                <g id="编组-12" transform="translate(8.000000, 9.000000)" fill="#4A4D4C" fill-rule="nonzero">
                    <path d="M1.16115533,7.11994882 C1.33600072,7.20642235 1.61007397,7.00953062 1.86661001,6.6481519 C1.96820345,7.04190092 2.21957424,7.39841441 2.57862068,7.68440731 C2.20202794,7.81611045 1.95602249,8.03117627 1.95602249,8.27501673 C1.95602249,8.67588814 2.62168317,9 3.44323732,9 C4.18426914,9 4.79798463,8.73659841 4.91126954,8.3903166 C4.94169076,8.38988086 5.05871025,8.38988086 5.088206,8.3903166 C5.2019713,8.73616296 5.81613163,9 6.55669298,9 C7.37824134,9 8.04390781,8.67543623 8.04390781,8.27501673 C8.04390781,8.03160938 7.79815041,7.81611045 7.42130631,7.68440731 C7.77987814,7.39796486 8.03216672,7.04190092 8.13329135,6.6481519 C8.38983566,7.00953297 8.66322346,7.20642235 8.83828879,7.11994882 C9.09199374,6.99445016 9.04191555,6.3222473 8.72501959,5.61856855 C8.47691067,5.06517742 8.14031615,4.65769583 7.88286976,4.56769087 C7.88661658,4.532328 7.88848915,4.49680948 7.88848043,4.46126927 C7.88848043,4.24754037 7.82576676,4.04978006 7.71855141,3.88881982 C7.72042257,3.87640498 7.72042257,3.8635463 7.72042257,3.85112347 C7.72042257,3.75270305 7.69562325,3.66046833 7.65345292,3.58064883 C7.58843345,2.14222975 6.59974036,1 4.9999517,1 C3.39922044,1 2.41009211,2.14223758 2.34572286,3.58064883 C2.30312067,3.6609124 2.27854998,3.7531393 2.27855006,3.85112347 C2.27855006,3.86354638 2.27948706,3.87641297 2.27996119,3.88881982 C2.17370026,4.04978006 2.11096649,4.24709159 2.11096649,4.46126927 C2.11096649,4.49674142 2.11237763,4.53220292 2.11565428,4.56769082 C1.86005504,4.65769344 1.52230626,5.06563006 1.27467029,5.6185685 C0.958934194,6.32270313 0.907672792,6.99444938 1.16115533,7.11994882 Z" id="路径"></path>
                </g>
                <circle id="Oval-4" fill="#F9483A" fill-rule="nonzero" cx="186" cy="14" r="4"></circle>
                <text id="这行字发送中" font-family="PingFangSC-Regular, PingFang SC" font-size="12" font-weight="normal" fill="#8F9598">
                    <tspan x="24" y="37">这行字发送中</tspan>
                </text>
                <rect id="Rectangle-15" fill="#EEEEEE" x="0" y="45" width="200" height="1"></rect>
                <text id="王光杰" font-family="PingFangSC-Medium, PingFang SC" font-size="12" font-weight="400" fill="#111111">
                    <tspan x="24" y="18">赵燕</tspan>
                </text>
            </g>
            <g id="编组-4" transform="translate(426.000000, 348.000000)">
                <rect id="Rectangle-15" fill="#FFFFFF" x="0" y="0" width="200" height="46"></rect>
                <text id="[草稿]-你好！！" font-family="PingFangSC-Regular, PingFang SC" font-size="12" font-weight="normal">
                    <tspan x="10" y="37" fill="#F9483A">[草稿]</tspan>
                    <tspan x="41.992" y="37" fill="#8F9598"> 你好！！</tspan>
                </text>
                <text id="09:10" font-family="PingFangSC-Regular, PingFang SC" font-size="12" font-weight="normal" fill="#8F9598">
                    <tspan x="160.42" y="18">09:10</tspan>
                </text>
                <rect id="Rectangle-15" fill="#EEEEEE" x="0" y="45" width="200" height="1"></rect>
                <text id="王光杰" font-family="PingFangSC-Medium, PingFang SC" font-size="12" font-weight="400" fill="#111111">
                    <tspan x="24" y="18">赵燕</tspan>
                </text>
                <g id="编组-11" transform="translate(8.000000, 9.000000)" fill="#4A4D4C" fill-rule="nonzero">
                    <path d="M5,5 C5.53944078,5 6.06449329,5.09842548 6.56058999,5.29252503 C7.03490113,5.47812213 7.4620321,5.74257183 7.83008034,6.07854779 C8.19566679,6.41226866 8.48333667,6.79849319 8.68510712,7.22650701 C8.89404781,7.66976697 9,8.13577203 9,8.61156354 C9,8.82608836 8.8073716,9 8.56978582,9 L1.43021418,9 C1.19261645,9 1,8.82608836 1,8.61156354 C1,8.13716393 1.10596414,7.67202205 1.31494068,7.22903185 C1.51673503,6.80126619 1.80433321,6.41505245 2.16971651,6.08106183 C2.53788424,5.74454638 2.96493157,5.47960034 3.43899175,5.29357165 C3.93541111,5.09877076 4.46060702,5 5,5 Z M5,1 C6.10279836,1 7,1.89720164 7,3 C7,4.10279836 6.10279836,5 5,5 C3.89719137,5 3,4.10279836 3,3 C3,1.89720164 3.89720164,1 5,1 Z" id="形状结合"></path>
                </g>
            </g>
            <g id="编组-4" transform="translate(426.000000, 440.000000)">
                <rect id="Rectangle-15" fill="#FFFFFF" x="0" y="0" width="200" height="46"></rect>
                <text id="09:10" font-family="PingFangSC-Regular, PingFang SC" font-size="12" font-weight="normal" fill="#8F9598">
                    <tspan x="160.42" y="18">09:10</tspan>
                </text>
                <rect id="Rectangle-15" fill="#EEEEEE" x="0" y="45" width="200" height="1"></rect>
                <text id="王光杰" font-family="PingFangSC-Medium, PingFang SC" font-size="12" font-weight="400" fill="#111111">
                    <tspan x="24" y="18">赵燕</tspan>
                </text>
                <g id="编组-11" transform="translate(8.000000, 9.000000)" fill="#4A4D4C" fill-rule="nonzero">
                    <path d="M5,5 C5.53944078,5 6.06449329,5.09842548 6.56058999,5.29252503 C7.03490113,5.47812213 7.4620321,5.74257183 7.83008034,6.07854779 C8.19566679,6.41226866 8.48333667,6.79849319 8.68510712,7.22650701 C8.89404781,7.66976697 9,8.13577203 9,8.61156354 C9,8.82608836 8.8073716,9 8.56978582,9 L1.43021418,9 C1.19261645,9 1,8.82608836 1,8.61156354 C1,8.13716393 1.10596414,7.67202205 1.31494068,7.22903185 C1.51673503,6.80126619 1.80433321,6.41505245 2.16971651,6.08106183 C2.53788424,5.74454638 2.96493157,5.47960034 3.43899175,5.29357165 C3.93541111,5.09877076 4.46060702,5 5,5 Z M5,1 C6.10279836,1 7,1.89720164 7,3 C7,4.10279836 6.10279836,5 5,5 C3.89719137,5 3,4.10279836 3,3 C3,1.89720164 3.89720164,1 5,1 Z" id="形状结合"></path>
                </g>
            </g>
            <g id="编组-4" transform="translate(426.000000, 256.000000)">
                <rect id="Rectangle-15" fill="#FFFFFF" x="0" y="0" width="200" height="46"></rect>
                <g id="编组-14" transform="translate(8.000000, 27.000000)" fill-rule="nonzero">
                    <circle id="Oval-3" fill="#EA4335" cx="6" cy="6" r="6"></circle>
                    <path d="M6,8.25 C6.41421356,8.25 6.75,8.58578644 6.75,9 C6.75,9.41421356 6.41421356,9.75 6,9.75 C5.58578644,9.75 5.25,9.41421356 5.25,9 C5.25,8.58578644 5.58578644,8.25 6,8.25 Z M6,2.25 C6.41421356,2.25 6.75,2.58578644 6.75,3 L6.75,6.75 C6.75,7.16421356 6.41421356,7.5 6,7.5 C5.58578644,7.5 5.25,7.16421356 5.25,6.75 L5.25,3 C5.25,2.58578644 5.58578644,2.25 6,2.25 Z" id="Combined-Shape" fill="#FFFFFF"></path>
                </g>
                <path d="M189.127273,11 L189.418182,11.2641509 L188.690909,11.990566 C188.945455,12.3950472 189.144318,12.9006486 189.190057,13.41889 L189.2,13.6415094 L189.2,16.1509434 C189.2,16.4150943 189.418182,16.6132075 189.709091,16.6132075 C189.833766,16.6132075 189.958442,16.6617251 189.991519,16.7587601 L190,16.8113208 L190,16.9433962 C190,17.0566038 189.893135,17.1698113 189.771005,17.199846 L189.709091,17.2075472 L186.987317,17.2092458 C186.911712,17.7972692 186.506538,18 186,18 C185.493462,18 185.088288,17.7972692 185.012683,17.2092458 L183.090909,17.2075472 L182.290909,18 L182,17.7358491 L189.127273,11 Z M186.028169,10 C186.348271,10 186.610173,10.2203857 186.655147,10.5108941 L186.661972,10.6 L186.869133,10.6614189 C187.2079,10.7712342 187.515871,10.9199223 187.818708,11.1317784 L188,11.2666667 L183,16 L183,13.4666667 C183,12.1275362 183.902047,10.9713926 185.213098,10.6400153 L185.394366,10.6 L185.401192,10.5108941 C185.446165,10.2203857 185.708067,10 186.028169,10 Z" id="形状结合" fill="#8F9598" fill-rule="nonzero"></path>
                <g id="编组-11" transform="translate(8.000000, 9.000000)" fill="#4A4D4C" fill-rule="nonzero">
                    <path d="M5,5 C5.53944078,5 6.06449329,5.09842548 6.56058999,5.29252503 C7.03490113,5.47812213 7.4620321,5.74257183 7.83008034,6.07854779 C8.19566679,6.41226866 8.48333667,6.79849319 8.68510712,7.22650701 C8.89404781,7.66976697 9,8.13577203 9,8.61156354 C9,8.82608836 8.8073716,9 8.56978582,9 L1.43021418,9 C1.19261645,9 1,8.82608836 1,8.61156354 C1,8.13716393 1.10596414,7.67202205 1.31494068,7.22903185 C1.51673503,6.80126619 1.80433321,6.41505245 2.16971651,6.08106183 C2.53788424,5.74454638 2.96493157,5.47960034 3.43899175,5.29357165 C3.93541111,5.09877076 4.46060702,5 5,5 Z M5,1 C6.10279836,1 7,1.89720164 7,3 C7,4.10279836 6.10279836,5 5,5 C3.89719137,5 3,4.10279836 3,3 C3,1.89720164 3.89720164,1 5,1 Z" id="形状结合"></path>
                </g>
                <text id="发一行字，可是失败了" font-family="PingFangSC-Regular, PingFang SC" font-size="12" font-weight="normal" fill="#8F9598">
                    <tspan x="24" y="37">发一行字，可是失败了</tspan>
                </text>
                <rect id="Rectangle-15" fill="#EEEEEE" x="0" y="45" width="200" height="1"></rect>
                <text id="王光杰" font-family="PingFangSC-Medium, PingFang SC" font-size="12" font-weight="400" fill="#111111">
                    <tspan x="24" y="18">赵燕</tspan>
                </text>
            </g>
            <g id="编组-4" transform="translate(426.000000, 302.000000)">
                <rect id="Rectangle-15" fill="#FFFFFF" x="0" y="0" width="200" height="46"></rect>
                <text id="邓紫博：一代数据可视化解决方…" font-family="PingFangSC-Regular, PingFang SC" font-size="12" font-weight="normal" fill="#8F9598">
                    <tspan x="10" y="37">邓紫博：一代数据可视化解决方…</tspan>
                </text>
                <g id="消息提醒" transform="translate(166.000000, 6.000000)">
                    <rect id="Rectangle-11" fill="#F9483A" x="0" y="0" width="24" height="16" rx="8"></rect>
                    <text id="99" font-family="PingFangSC-Medium, PingFang SC" font-size="10" font-weight="400" line-spacing="10" fill="#FFFFFF">
                        <tspan x="6" y="13">99</tspan>
                    </text>
                </g>
                <rect id="Rectangle-15" fill="#EEEEEE" x="0" y="45" width="200" height="1"></rect>
                <text id="王光杰" font-family="PingFangSC-Medium, PingFang SC" font-size="12" font-weight="400" fill="#111111">
                    <tspan x="24" y="18">黄力梁</tspan>
                </text>
                <g id="编组-12" transform="translate(8.000000, 9.000000)" fill="#4A4D4C" fill-rule="nonzero">
                    <path d="M1.16115533,7.11994882 C1.33600072,7.20642235 1.61007397,7.00953062 1.86661001,6.6481519 C1.96820345,7.04190092 2.21957424,7.39841441 2.57862068,7.68440731 C2.20202794,7.81611045 1.95602249,8.03117627 1.95602249,8.27501673 C1.95602249,8.67588814 2.62168317,9 3.44323732,9 C4.18426914,9 4.79798463,8.73659841 4.91126954,8.3903166 C4.94169076,8.38988086 5.05871025,8.38988086 5.088206,8.3903166 C5.2019713,8.73616296 5.81613163,9 6.55669298,9 C7.37824134,9 8.04390781,8.67543623 8.04390781,8.27501673 C8.04390781,8.03160938 7.79815041,7.81611045 7.42130631,7.68440731 C7.77987814,7.39796486 8.03216672,7.04190092 8.13329135,6.6481519 C8.38983566,7.00953297 8.66322346,7.20642235 8.83828879,7.11994882 C9.09199374,6.99445016 9.04191555,6.3222473 8.72501959,5.61856855 C8.47691067,5.06517742 8.14031615,4.65769583 7.88286976,4.56769087 C7.88661658,4.532328 7.88848915,4.49680948 7.88848043,4.46126927 C7.88848043,4.24754037 7.82576676,4.04978006 7.71855141,3.88881982 C7.72042257,3.87640498 7.72042257,3.8635463 7.72042257,3.85112347 C7.72042257,3.75270305 7.69562325,3.66046833 7.65345292,3.58064883 C7.58843345,2.14222975 6.59974036,1 4.9999517,1 C3.39922044,1 2.41009211,2.14223758 2.34572286,3.58064883 C2.30312067,3.6609124 2.27854998,3.7531393 2.27855006,3.85112347 C2.27855006,3.86354638 2.27948706,3.87641297 2.27996119,3.88881982 C2.17370026,4.04978006 2.11096649,4.24709159 2.11096649,4.46126927 C2.11096649,4.49674142 2.11237763,4.53220292 2.11565428,4.56769082 C1.86005504,4.65769344 1.52230626,5.06563006 1.27467029,5.6185685 C0.958934194,6.32270313 0.907672792,6.99444938 1.16115533,7.11994882 Z" id="路径"></path>
                </g>
            </g>
            <g id="编组-4" transform="translate(426.000000, 394.000000)">
                <rect id="Rectangle-15" fill="#FFFFFF" x="0" y="0" width="200" height="46"></rect>
                <text id="[有人@我]-你好！！" font-family="PingFangSC-Regular, PingFang SC" font-size="12" font-weight="normal">
                    <tspan x="10" y="37" fill="#F9483A">[有人@我]</tspan>
                    <tspan x="64.288" y="37" fill="#8F9598"> 你好！！</tspan>
                </text>
                <g id="消息提醒" transform="translate(174.000000, 6.000000)">
                    <rect id="Rectangle-11" fill="#F9483A" x="0" y="0" width="16" height="16" rx="8"></rect>
                    <text id="1" font-family="PingFangSC-Medium, PingFang SC" font-size="10" font-weight="400" line-spacing="10" fill="#FFFFFF">
                        <tspan x="5.57855288" y="13.2966297">1</tspan>
                    </text>
                </g>
                <rect id="Rectangle-15" fill="#EEEEEE" x="0" y="45" width="200" height="1"></rect>
                <text id="李2志李志李志李志李志…" font-family="PingFangSC-Medium, PingFang SC" font-size="12" font-weight="400" fill="#111111">
                    <tspan x="24" y="18">李2志李志李志李志李志…</tspan>
                </text>
                <g id="编组-11" transform="translate(8.000000, 9.000000)" fill="#4A4D4C" fill-rule="nonzero">
                    <path d="M5,5 C5.53944078,5 6.06449329,5.09842548 6.56058999,5.29252503 C7.03490113,5.47812213 7.4620321,5.74257183 7.83008034,6.07854779 C8.19566679,6.41226866 8.48333667,6.79849319 8.68510712,7.22650701 C8.89404781,7.66976697 9,8.13577203 9,8.61156354 C9,8.82608836 8.8073716,9 8.56978582,9 L1.43021418,9 C1.19261645,9 1,8.82608836 1,8.61156354 C1,8.13716393 1.10596414,7.67202205 1.31494068,7.22903185 C1.51673503,6.80126619 1.80433321,6.41505245 2.16971651,6.08106183 C2.53788424,5.74454638 2.96493157,5.47960034 3.43899175,5.29357165 C3.93541111,5.09877076 4.46060702,5 5,5 Z M5,1 C6.10279836,1 7,1.89720164 7,3 C7,4.10279836 6.10279836,5 5,5 C3.89719137,5 3,4.10279836 3,3 C3,1.89720164 3.89720164,1 5,1 Z" id="形状结合"></path>
                </g>
            </g>
            <g id="编组-4" transform="translate(426.000000, 486.000000)">
                <rect id="Rectangle-15" fill="#FFFFFF" x="0" y="0" width="200" height="46"></rect>
                <text id="邓紫博：[文件]" font-family="PingFangSC-Regular, PingFang SC" font-size="12" font-weight="normal" fill="#8F9598">
                    <tspan x="10" y="37">邓紫博：[文件]</tspan>
                </text>
                <text id="2019/08/09" font-family="PingFangSC-Regular, PingFang SC" font-size="12" font-weight="normal" fill="#8F9598">
                    <tspan x="122.788" y="18">2019/08/09</tspan>
                </text>
                <rect id="Rectangle-15" fill="#EEEEEE" x="0" y="45" width="200" height="1"></rect>
                <text id="王光杰" font-family="PingFangSC-Medium, PingFang SC" font-size="12" font-weight="400" fill="#111111">
                    <tspan x="24" y="18">武天芮</tspan>
                </text>
                <g id="编组-11" transform="translate(8.000000, 9.000000)" fill="#4A4D4C" fill-rule="nonzero">
                    <path d="M5,5 C5.53944078,5 6.06449329,5.09842548 6.56058999,5.29252503 C7.03490113,5.47812213 7.4620321,5.74257183 7.83008034,6.07854779 C8.19566679,6.41226866 8.48333667,6.79849319 8.68510712,7.22650701 C8.89404781,7.66976697 9,8.13577203 9,8.61156354 C9,8.82608836 8.8073716,9 8.56978582,9 L1.43021418,9 C1.19261645,9 1,8.82608836 1,8.61156354 C1,8.13716393 1.10596414,7.67202205 1.31494068,7.22903185 C1.51673503,6.80126619 1.80433321,6.41505245 2.16971651,6.08106183 C2.53788424,5.74454638 2.96493157,5.47960034 3.43899175,5.29357165 C3.93541111,5.09877076 4.46060702,5 5,5 Z M5,1 C6.10279836,1 7,1.89720164 7,3 C7,4.10279836 6.10279836,5 5,5 C3.89719137,5 3,4.10279836 3,3 C3,1.89720164 3.89720164,1 5,1 Z" id="形状结合"></path>
                </g>
            </g>
            <rect id="Rectangle-15" fill="#FFFFFF" x="691" y="88" width="200" height="576"></rect>
            <g id="编组-9" transform="translate(691.000000, 88.000000)">
                <rect id="Rectangle-2" fill="#FFFFFF" x="0" y="0" width="200" height="30"></rect>
                <text id="消息" font-family="PingFangSC-Medium, PingFang SC" font-size="14" font-weight="400" fill="#111111">
                    <tspan x="8" y="20">消息</tspan>
                </text>
                <g id="编组-8" transform="translate(172.000000, 4.000000)">
                    <rect id="Rectangle-Copy-6" fill-opacity="0" fill="#136C5E" transform="translate(11.000000, 11.000000) rotate(-360.000000) translate(-11.000000, -11.000000) " x="0" y="0" width="22" height="22"></rect>
                    <g id="编组-6" transform="translate(6.000000, 7.000000)" fill="#111111">
                        <path d="M5,6 L8,9 L2,9 L5,6 Z M9.5,4 C9.77614237,4 10,4.22385763 10,4.5 C10,4.77614237 9.77614237,5 9.5,5 L0.5,5 C0.223857625,5 3.38176876e-17,4.77614237 0,4.5 C-3.38176876e-17,4.22385763 0.223857625,4 0.5,4 L9.5,4 Z M8,4.4408921e-16 L5,3 L2,-4.4408921e-16 L8,4.4408921e-16 Z" id="形状结合"></path>
                    </g>
                </g>
                <g id="编组-7" transform="translate(150.000000, 4.000000)" fill="#4A4D4C" fill-opacity="0.33">
                    <path d="M8,13 L14,13 L11,16 L8,13 Z M15.5,11 C15.7761424,11 16,11.2238576 16,11.5 C16,11.7761424 15.7761424,12 15.5,12 L6.5,12 C6.22385763,12 6,11.7761424 6,11.5 C6,11.2238576 6.22385763,11 6.5,11 L15.5,11 Z M11,7 L14,10 L8,10 L11,7 Z" id="形状结合"></path>
                </g>
                <rect id="Rectangle-2" fill="#EEEEEE" x="0" y="29" width="200" height="1"></rect>
            </g>
            <g id="编组-4" transform="translate(691.000000, 118.000000)">
                <rect id="Rectangle-15" fill="#FFFFFF" x="0" y="0" width="200" height="63"></rect>
                <g id="编组-11" transform="translate(8.000000, 9.000000)" fill="#4A4D4C" fill-rule="nonzero">
                    <path d="M5,5 C5.53944078,5 6.06449329,5.09842548 6.56058999,5.29252503 C7.03490113,5.47812213 7.4620321,5.74257183 7.83008034,6.07854779 C8.19566679,6.41226866 8.48333667,6.79849319 8.68510712,7.22650701 C8.89404781,7.66976697 9,8.13577203 9,8.61156354 C9,8.82608836 8.8073716,9 8.56978582,9 L1.43021418,9 C1.19261645,9 1,8.82608836 1,8.61156354 C1,8.13716393 1.10596414,7.67202205 1.31494068,7.22903185 C1.51673503,6.80126619 1.80433321,6.41505245 2.16971651,6.08106183 C2.53788424,5.74454638 2.96493157,5.47960034 3.43899175,5.29357165 C3.93541111,5.09877076 4.46060702,5 5,5 Z M5,1 C6.10279836,1 7,1.89720164 7,3 C7,4.10279836 6.10279836,5 5,5 C3.89719137,5 3,4.10279836 3,3 C3,1.89720164 3.89720164,1 5,1 Z" id="形状结合"></path>
                </g>
                <path d="M2.5,2 L7.79289322,2 C8.06903559,2 8.29289322,2.22385763 8.29289322,2.5 L8.29289322,7.79289322 C8.29289322,8.06903559 8.06903559,8.29289322 7.79289322,8.29289322 C7.66028497,8.29289322 7.53310802,8.2402148 7.43933983,8.14644661 L2.14644661,2.85355339 C1.95118446,2.65829124 1.95118446,2.34170876 2.14644661,2.14644661 C2.2402148,2.05267842 2.36739176,2 2.5,2 Z" id="形状" fill="#1951AE" fill-rule="nonzero" transform="translate(5.146447, 5.146447) scale(-1, 1) translate(-5.146447, -5.146447) "></path>
                <text id="09:10" font-family="PingFangSC-Regular, PingFang SC" font-size="12" font-weight="normal" fill="#8F9598">
                    <tspan x="160.42" y="18">09:10</tspan>
                </text>
                <text id="邓紫博：一代数据可视化解决方…" font-family="PingFangSC-Regular, PingFang SC" font-size="12" font-weight="normal" fill="#8F9598">
                    <tspan x="10" y="37">邓紫博：一代数据可视化解决方…</tspan>
                </text>
                <text id="我：[文件]" font-family="PingFangSC-Regular, PingFang SC" font-size="12" font-weight="normal" fill="#8F9598">
                    <tspan x="10" y="54">我：[文件]</tspan>
                </text>
                <rect id="Rectangle-15" fill="#EEEEEE" x="0" y="62" width="200" height="1"></rect>
                <text id="王光杰" font-family="PingFangSC-Medium, PingFang SC" font-size="12" font-weight="400" fill="#111111">
                    <tspan x="24" y="18">王光杰</tspan>
                </text>
            </g>
            <g id="编组-4" transform="translate(691.000000, 181.000000)">
                <rect id="Rectangle-15" fill="#EEEEEE" x="0" y="0" width="200" height="63"></rect>
                <g id="编组-10" transform="translate(8.000000, 9.000000)" fill="#4A4D4C" fill-rule="nonzero">
                    <path d="M4,1.125 C5.10279836,1.125 6,2.02220164 6,3.125 C6,4.02617563 5.40087601,4.79006002 4.58002468,5.0392565 C4.91574241,5.08378673 5.2440601,5.16868162 5.56058999,5.29252503 C6.03490113,5.47812213 6.4620321,5.74257183 6.83008034,6.07854779 C7.19566679,6.41226866 7.48333667,6.79849319 7.68510712,7.22650701 C7.89404781,7.66976697 8,8.13577203 8,8.61156354 C8,8.82608836 7.8073716,9 7.56978582,9 L0.430214181,9 C0.192616449,9 0,8.82608836 0,8.61156354 C0,8.13716393 0.105964143,7.67202205 0.314940681,7.22903185 C0.516735033,6.80126619 0.804333213,6.41505245 1.16971651,6.08106183 C1.53788424,5.74454638 1.96493157,5.47960034 2.43899175,5.29357165 C2.75572751,5.16928075 3.08417809,5.08408333 3.42055656,5.03869125 C2.59911713,4.79006002 2,4.02617563 2,3.125 C2,2.02220164 2.89720164,1.125 4,1.125 Z M6.71122434,0.00791798679 C7.12274853,0.096888901 7.5009595,0.311755465 7.80473431,0.634410471 C8.21326609,1.0683333 8.43825214,1.64524767 8.43825214,2.25890619 C8.43825214,2.87256471 8.21326609,3.44947909 7.80473431,3.88340192 C7.72886648,3.96398508 7.64835567,4.03784493 7.56384252,4.10469937 C7.62069005,4.12569669 7.67699398,4.14990811 7.73290517,4.17564548 C8.17759522,4.38032674 8.57805656,4.67202854 8.92316969,5.0426243 C9.26598183,5.410752 9.53572932,5.836777 9.72490849,6.30888869 C9.86709323,6.66376104 9.9583957,7.03184058 9.99773907,7.40764938 C10.0190184,7.61084178 9.88766142,7.79121348 9.70612421,7.82878753 L9.63589567,7.83594983 C9.45034366,7.83594983 9.29490844,7.68762484 9.27429029,7.49175639 C9.24263197,7.19104915 9.16935197,6.89620508 9.05530039,6.61158243 C8.9022455,6.22964559 8.68370899,5.88464552 8.40577771,5.5861776 C7.90743967,5.05103982 7.27325308,4.7237015 6.59345492,4.64472326 C6.40956915,4.62335339 6.27026346,4.45854651 6.27026346,4.26206405 L6.27026346,4.25909033 C6.27026346,4.22992755 6.27329697,4.20158602 6.27903389,4.17438005 L6.27530748,4.13279738 C6.27530748,3.94955823 6.39519652,3.78913368 6.56418826,3.75230526 C7.21758748,3.60991568 7.71053011,2.9944031 7.71053011,2.25890619 C7.71053011,1.52340929 7.21758748,0.907884668 6.56418826,0.765507127 C6.4193382,0.733939909 6.31056359,0.611567371 6.28244126,0.461855434 L6.27530748,0.385015006 C6.27530748,0.141025216 6.48612494,-0.0407451303 6.71122434,0.00791798679 Z" id="team"></path>
                </g>
                <path d="M2.5,2 L7.79289322,2 C8.06903559,2 8.29289322,2.22385763 8.29289322,2.5 L8.29289322,7.79289322 C8.29289322,8.06903559 8.06903559,8.29289322 7.79289322,8.29289322 C7.66028497,8.29289322 7.53310802,8.2402148 7.43933983,8.14644661 L2.14644661,2.85355339 C1.95118446,2.65829124 1.95118446,2.34170876 2.14644661,2.14644661 C2.2402148,2.05267842 2.36739176,2 2.5,2 Z" id="形状" fill="#1951AE" fill-rule="nonzero" transform="translate(5.146447, 5.146447) scale(-1, 1) translate(-5.146447, -5.146447) "></path>
                <text id="邓紫博：[图片]" font-family="PingFangSC-Regular, PingFang SC" font-size="12" font-weight="normal" fill="#8F9598">
                    <tspan x="10" y="37">邓紫博：[图片]</tspan>
                </text>
                <text id="邓紫博：[图片]" font-family="PingFangSC-Regular, PingFang SC" font-size="12" font-weight="normal" fill="#8F9598">
                    <tspan x="10" y="54">邓紫博：[图片]</tspan>
                </text>
                <text id="09:10" font-family="PingFangSC-Regular, PingFang SC" font-size="12" font-weight="normal" fill="#8F9598">
                    <tspan x="160.42" y="18">09:10</tspan>
                </text>
                <rect id="Rectangle-15" fill="#EEEEEE" x="0" y="62" width="200" height="1"></rect>
                <text id="公司内部研讨群" font-family="PingFangSC-Medium, PingFang SC" font-size="12" font-weight="400" fill="#1951AE">
                    <tspan x="24" y="18">公司内部研讨群</tspan>
                </text>
            </g>
            <g id="编组-4" transform="translate(691.000000, 244.000000)">
                <rect id="Rectangle-15" fill="#FFFFFF" x="0" y="0" width="200" height="63"></rect>
                <g id="编组-19" transform="translate(8.000000, 44.000000)" fill="#8F9598" fill-rule="nonzero">
                    <path d="M4.8,3.44444444 L7.2,3.44444444 L7.2,8.33333333 L4.8,8.33333333 L4.8,10.7777778 L0,5.88888889 L4.8,1 L4.8,3.44444444 Z M7.88560312,3.44444444 L9.94280625,3.44444444 L9.94280625,8.33333333 L7.88560312,8.33333333 L7.88560312,3.44444444 L7.88560312,3.44444444 Z M10.6284,3.44444444 L12,3.44444444 L12,8.33333333 L10.6284,8.33333333 L10.6284,3.44444444 Z" id="形状"></path>
                </g>
                <text id="这行字发送中" font-family="PingFangSC-Regular, PingFang SC" font-size="12" font-weight="normal" fill="#8F9598">
                    <tspan x="24" y="54">这行字发送中</tspan>
                </text>
                <g id="编组-12" transform="translate(8.000000, 9.000000)" fill="#4A4D4C" fill-rule="nonzero">
                    <path d="M1.16115533,7.11994882 C1.33600072,7.20642235 1.61007397,7.00953062 1.86661001,6.6481519 C1.96820345,7.04190092 2.21957424,7.39841441 2.57862068,7.68440731 C2.20202794,7.81611045 1.95602249,8.03117627 1.95602249,8.27501673 C1.95602249,8.67588814 2.62168317,9 3.44323732,9 C4.18426914,9 4.79798463,8.73659841 4.91126954,8.3903166 C4.94169076,8.38988086 5.05871025,8.38988086 5.088206,8.3903166 C5.2019713,8.73616296 5.81613163,9 6.55669298,9 C7.37824134,9 8.04390781,8.67543623 8.04390781,8.27501673 C8.04390781,8.03160938 7.79815041,7.81611045 7.42130631,7.68440731 C7.77987814,7.39796486 8.03216672,7.04190092 8.13329135,6.6481519 C8.38983566,7.00953297 8.66322346,7.20642235 8.83828879,7.11994882 C9.09199374,6.99445016 9.04191555,6.3222473 8.72501959,5.61856855 C8.47691067,5.06517742 8.14031615,4.65769583 7.88286976,4.56769087 C7.88661658,4.532328 7.88848915,4.49680948 7.88848043,4.46126927 C7.88848043,4.24754037 7.82576676,4.04978006 7.71855141,3.88881982 C7.72042257,3.87640498 7.72042257,3.8635463 7.72042257,3.85112347 C7.72042257,3.75270305 7.69562325,3.66046833 7.65345292,3.58064883 C7.58843345,2.14222975 6.59974036,1 4.9999517,1 C3.39922044,1 2.41009211,2.14223758 2.34572286,3.58064883 C2.30312067,3.6609124 2.27854998,3.7531393 2.27855006,3.85112347 C2.27855006,3.86354638 2.27948706,3.87641297 2.27996119,3.88881982 C2.17370026,4.04978006 2.11096649,4.24709159 2.11096649,4.46126927 C2.11096649,4.49674142 2.11237763,4.53220292 2.11565428,4.56769082 C1.86005504,4.65769344 1.52230626,5.06563006 1.27467029,5.6185685 C0.958934194,6.32270313 0.907672792,6.99444938 1.16115533,7.11994882 Z" id="路径"></path>
                </g>
                <circle id="Oval-4" fill="#F9483A" fill-rule="nonzero" cx="186" cy="14" r="4"></circle>
                <text id="邓紫博：[文件]" font-family="PingFangSC-Regular, PingFang SC" font-size="12" font-weight="normal" fill="#8F9598">
                    <tspan x="10" y="37">邓紫博：[文件]</tspan>
                </text>
                <rect id="Rectangle-15" fill="#EEEEEE" x="0" y="62" width="200" height="1"></rect>
                <text id="王光杰" font-family="PingFangSC-Medium, PingFang SC" font-size="12" font-weight="400" fill="#111111">
                    <tspan x="24" y="18">赵燕</tspan>
                </text>
            </g>
            <g id="编组-4" transform="translate(691.000000, 496.000000)">
                <rect id="Rectangle-15" fill="#FFFFFF" x="0" y="0" width="200" height="63"></rect>
                <text id="09:10" font-family="PingFangSC-Regular, PingFang SC" font-size="12" font-weight="normal" fill="#8F9598">
                    <tspan x="160.42" y="18">09:10</tspan>
                </text>
                <rect id="Rectangle-15" fill="#EEEEEE" x="0" y="62" width="200" height="1"></rect>
                <text id="王光杰" font-family="PingFangSC-Medium, PingFang SC" font-size="12" font-weight="400" fill="#111111">
                    <tspan x="24" y="18">赵燕</tspan>
                </text>
                <g id="编组-11" transform="translate(8.000000, 9.000000)" fill="#4A4D4C" fill-rule="nonzero">
                    <path d="M5,5 C5.53944078,5 6.06449329,5.09842548 6.56058999,5.29252503 C7.03490113,5.47812213 7.4620321,5.74257183 7.83008034,6.07854779 C8.19566679,6.41226866 8.48333667,6.79849319 8.68510712,7.22650701 C8.89404781,7.66976697 9,8.13577203 9,8.61156354 C9,8.82608836 8.8073716,9 8.56978582,9 L1.43021418,9 C1.19261645,9 1,8.82608836 1,8.61156354 C1,8.13716393 1.10596414,7.67202205 1.31494068,7.22903185 C1.51673503,6.80126619 1.80433321,6.41505245 2.16971651,6.08106183 C2.53788424,5.74454638 2.96493157,5.47960034 3.43899175,5.29357165 C3.93541111,5.09877076 4.46060702,5 5,5 Z M5,1 C6.10279836,1 7,1.89720164 7,3 C7,4.10279836 6.10279836,5 5,5 C3.89719137,5 3,4.10279836 3,3 C3,1.89720164 3.89720164,1 5,1 Z" id="形状结合"></path>
                </g>
            </g>
            <g id="编组-4" transform="translate(691.000000, 307.000000)">
                <rect id="Rectangle-15" fill="#FFFFFF" x="0" y="0" width="200" height="63"></rect>
                <text id="[草稿]-你好！！" font-family="PingFangSC-Regular, PingFang SC" font-size="12" font-weight="normal">
                    <tspan x="10" y="54" fill="#F9483A">[草稿]</tspan>
                    <tspan x="41.992" y="54" fill="#8F9598"> 你好！！</tspan>
                </text>
                <path d="M189.127273,11 L189.418182,11.2641509 L188.690909,11.990566 C188.945455,12.3950472 189.144318,12.9006486 189.190057,13.41889 L189.2,13.6415094 L189.2,16.1509434 C189.2,16.4150943 189.418182,16.6132075 189.709091,16.6132075 C189.833766,16.6132075 189.958442,16.6617251 189.991519,16.7587601 L190,16.8113208 L190,16.9433962 C190,17.0566038 189.893135,17.1698113 189.771005,17.199846 L189.709091,17.2075472 L186.987317,17.2092458 C186.911712,17.7972692 186.506538,18 186,18 C185.493462,18 185.088288,17.7972692 185.012683,17.2092458 L183.090909,17.2075472 L182.290909,18 L182,17.7358491 L189.127273,11 Z M186.028169,10 C186.348271,10 186.610173,10.2203857 186.655147,10.5108941 L186.661972,10.6 L186.869133,10.6614189 C187.2079,10.7712342 187.515871,10.9199223 187.818708,11.1317784 L188,11.2666667 L183,16 L183,13.4666667 C183,12.1275362 183.902047,10.9713926 185.213098,10.6400153 L185.394366,10.6 L185.401192,10.5108941 C185.446165,10.2203857 185.708067,10 186.028169,10 Z" id="形状结合" fill="#8F9598" fill-rule="nonzero"></path>
                <text id="邓紫博：[文件]" font-family="PingFangSC-Regular, PingFang SC" font-size="12" font-weight="normal" fill="#8F9598">
                    <tspan x="10" y="37">邓紫博：[文件]</tspan>
                </text>
                <rect id="Rectangle-15" fill="#EEEEEE" x="0" y="62" width="200" height="1"></rect>
                <text id="王光杰" font-family="PingFangSC-Medium, PingFang SC" font-size="12" font-weight="400" fill="#111111">
                    <tspan x="24" y="18">赵燕</tspan>
                </text>
                <g id="编组-11" transform="translate(8.000000, 9.000000)" fill="#4A4D4C" fill-rule="nonzero">
                    <path d="M5,5 C5.53944078,5 6.06449329,5.09842548 6.56058999,5.29252503 C7.03490113,5.47812213 7.4620321,5.74257183 7.83008034,6.07854779 C8.19566679,6.41226866 8.48333667,6.79849319 8.68510712,7.22650701 C8.89404781,7.66976697 9,8.13577203 9,8.61156354 C9,8.82608836 8.8073716,9 8.56978582,9 L1.43021418,9 C1.19261645,9 1,8.82608836 1,8.61156354 C1,8.13716393 1.10596414,7.67202205 1.31494068,7.22903185 C1.51673503,6.80126619 1.80433321,6.41505245 2.16971651,6.08106183 C2.53788424,5.74454638 2.96493157,5.47960034 3.43899175,5.29357165 C3.93541111,5.09877076 4.46060702,5 5,5 Z M5,1 C6.10279836,1 7,1.89720164 7,3 C7,4.10279836 6.10279836,5 5,5 C3.89719137,5 3,4.10279836 3,3 C3,1.89720164 3.89720164,1 5,1 Z" id="形状结合"></path>
                </g>
            </g>
            <g id="编组-4" transform="translate(691.000000, 370.000000)">
                <rect id="Rectangle-15" fill="#FFFFFF" x="0" y="0" width="200" height="63"></rect>
                <g id="编组-14" transform="translate(8.000000, 44.000000)" fill-rule="nonzero">
                    <circle id="Oval-3" fill="#EA4335" cx="6" cy="6" r="6"></circle>
                    <path d="M6,8.25 C6.41421356,8.25 6.75,8.58578644 6.75,9 C6.75,9.41421356 6.41421356,9.75 6,9.75 C5.58578644,9.75 5.25,9.41421356 5.25,9 C5.25,8.58578644 5.58578644,8.25 6,8.25 Z M6,2.25 C6.41421356,2.25 6.75,2.58578644 6.75,3 L6.75,6.75 C6.75,7.16421356 6.41421356,7.5 6,7.5 C5.58578644,7.5 5.25,7.16421356 5.25,6.75 L5.25,3 C5.25,2.58578644 5.58578644,2.25 6,2.25 Z" id="Combined-Shape" fill="#FFFFFF"></path>
                </g>
                <text id="发一行字，可是失败了" font-family="PingFangSC-Regular, PingFang SC" font-size="12" font-weight="normal" fill="#8F9598">
                    <tspan x="24" y="54">发一行字，可是失败了</tspan>
                </text>
                <text id="邓紫博：一代数据可视化解决方…" font-family="PingFangSC-Regular, PingFang SC" font-size="12" font-weight="normal" fill="#8F9598">
                    <tspan x="10" y="37">邓紫博：一代数据可视化解决方…</tspan>
                </text>
                <g id="消息提醒" transform="translate(166.000000, 6.000000)">
                    <rect id="Rectangle-11" fill="#F9483A" x="0" y="0" width="24" height="16" rx="8"></rect>
                    <text id="99" font-family="PingFangSC-Medium, PingFang SC" font-size="10" font-weight="400" line-spacing="10" fill="#FFFFFF">
                        <tspan x="6" y="13">99</tspan>
                    </text>
                </g>
                <rect id="Rectangle-15" fill="#EEEEEE" x="0" y="62" width="200" height="1"></rect>
                <text id="王光杰" font-family="PingFangSC-Medium, PingFang SC" font-size="12" font-weight="400" fill="#111111">
                    <tspan x="24" y="18">黄力梁</tspan>
                </text>
                <g id="编组-11" transform="translate(8.000000, 9.000000)" fill="#4A4D4C" fill-rule="nonzero">
                    <path d="M5,5 C5.53944078,5 6.06449329,5.09842548 6.56058999,5.29252503 C7.03490113,5.47812213 7.4620321,5.74257183 7.83008034,6.07854779 C8.19566679,6.41226866 8.48333667,6.79849319 8.68510712,7.22650701 C8.89404781,7.66976697 9,8.13577203 9,8.61156354 C9,8.82608836 8.8073716,9 8.56978582,9 L1.43021418,9 C1.19261645,9 1,8.82608836 1,8.61156354 C1,8.13716393 1.10596414,7.67202205 1.31494068,7.22903185 C1.51673503,6.80126619 1.80433321,6.41505245 2.16971651,6.08106183 C2.53788424,5.74454638 2.96493157,5.47960034 3.43899175,5.29357165 C3.93541111,5.09877076 4.46060702,5 5,5 Z M5,1 C6.10279836,1 7,1.89720164 7,3 C7,4.10279836 6.10279836,5 5,5 C3.89719137,5 3,4.10279836 3,3 C3,1.89720164 3.89720164,1 5,1 Z" id="形状结合"></path>
                </g>
            </g>
            <g id="编组-4" transform="translate(691.000000, 433.000000)">
                <rect id="Rectangle-15" fill="#FFFFFF" x="0" y="0" width="200" height="63"></rect>
                <text id="邓紫博：一代数据可视化解决方…" font-family="PingFangSC-Regular, PingFang SC" font-size="12" font-weight="normal" fill="#8F9598">
                    <tspan x="10" y="37">邓紫博：一代数据可视化解决方…</tspan>
                </text>
                <text id="邓紫博：一代数据可视化解决方…" font-family="PingFangSC-Regular, PingFang SC" font-size="12" font-weight="normal" fill="#8F9598">
                    <tspan x="10" y="54">邓紫博：一代数据可视化解决方…</tspan>
                </text>
                <g id="消息提醒" transform="translate(174.000000, 6.000000)">
                    <rect id="Rectangle-11" fill="#F9483A" x="0" y="0" width="16" height="16" rx="8"></rect>
                    <text id="1" font-family="PingFangSC-Medium, PingFang SC" font-size="10" font-weight="400" line-spacing="10" fill="#FFFFFF">
                        <tspan x="5.57855288" y="13.2966297">1</tspan>
                    </text>
                </g>
                <rect id="Rectangle-15" fill="#EEEEEE" x="0" y="62" width="200" height="1"></rect>
                <text id="李2志李志李志李志李志…" font-family="PingFangSC-Medium, PingFang SC" font-size="12" font-weight="400" fill="#111111">
                    <tspan x="24" y="18">李2志李志李志李志李志…</tspan>
                </text>
                <g id="编组-12" transform="translate(8.000000, 9.000000)" fill="#4A4D4C" fill-rule="nonzero">
                    <path d="M1.16115533,7.11994882 C1.33600072,7.20642235 1.61007397,7.00953062 1.86661001,6.6481519 C1.96820345,7.04190092 2.21957424,7.39841441 2.57862068,7.68440731 C2.20202794,7.81611045 1.95602249,8.03117627 1.95602249,8.27501673 C1.95602249,8.67588814 2.62168317,9 3.44323732,9 C4.18426914,9 4.79798463,8.73659841 4.91126954,8.3903166 C4.94169076,8.38988086 5.05871025,8.38988086 5.088206,8.3903166 C5.2019713,8.73616296 5.81613163,9 6.55669298,9 C7.37824134,9 8.04390781,8.67543623 8.04390781,8.27501673 C8.04390781,8.03160938 7.79815041,7.81611045 7.42130631,7.68440731 C7.77987814,7.39796486 8.03216672,7.04190092 8.13329135,6.6481519 C8.38983566,7.00953297 8.66322346,7.20642235 8.83828879,7.11994882 C9.09199374,6.99445016 9.04191555,6.3222473 8.72501959,5.61856855 C8.47691067,5.06517742 8.14031615,4.65769583 7.88286976,4.56769087 C7.88661658,4.532328 7.88848915,4.49680948 7.88848043,4.46126927 C7.88848043,4.24754037 7.82576676,4.04978006 7.71855141,3.88881982 C7.72042257,3.87640498 7.72042257,3.8635463 7.72042257,3.85112347 C7.72042257,3.75270305 7.69562325,3.66046833 7.65345292,3.58064883 C7.58843345,2.14222975 6.59974036,1 4.9999517,1 C3.39922044,1 2.41009211,2.14223758 2.34572286,3.58064883 C2.30312067,3.6609124 2.27854998,3.7531393 2.27855006,3.85112347 C2.27855006,3.86354638 2.27948706,3.87641297 2.27996119,3.88881982 C2.17370026,4.04978006 2.11096649,4.24709159 2.11096649,4.46126927 C2.11096649,4.49674142 2.11237763,4.53220292 2.11565428,4.56769082 C1.86005504,4.65769344 1.52230626,5.06563006 1.27467029,5.6185685 C0.958934194,6.32270313 0.907672792,6.99444938 1.16115533,7.11994882 Z" id="路径"></path>
                </g>
            </g>
            <g id="编组-4" transform="translate(691.000000, 559.000000)">
                <rect id="Rectangle-15" fill="#FFFFFF" x="0" y="0" width="200" height="63"></rect>
                <text id="邓紫博：[文件]" font-family="PingFangSC-Regular, PingFang SC" font-size="12" font-weight="normal" fill="#8F9598">
                    <tspan x="10" y="37">邓紫博：[文件]</tspan>
                </text>
                <text id="2019/08/09" font-family="PingFangSC-Regular, PingFang SC" font-size="12" font-weight="normal" fill="#8F9598">
                    <tspan x="122.788" y="18">2019/08/09</tspan>
                </text>
                <rect id="Rectangle-15" fill="#EEEEEE" x="0" y="62" width="200" height="1"></rect>
                <text id="王光杰" font-family="PingFangSC-Medium, PingFang SC" font-size="12" font-weight="400" fill="#111111">
                    <tspan x="24" y="18">武天芮</tspan>
                </text>
                <g id="编组-11" transform="translate(8.000000, 9.000000)" fill="#4A4D4C" fill-rule="nonzero">
                    <path d="M5,5 C5.53944078,5 6.06449329,5.09842548 6.56058999,5.29252503 C7.03490113,5.47812213 7.4620321,5.74257183 7.83008034,6.07854779 C8.19566679,6.41226866 8.48333667,6.79849319 8.68510712,7.22650701 C8.89404781,7.66976697 9,8.13577203 9,8.61156354 C9,8.82608836 8.8073716,9 8.56978582,9 L1.43021418,9 C1.19261645,9 1,8.82608836 1,8.61156354 C1,8.13716393 1.10596414,7.67202205 1.31494068,7.22903185 C1.51673503,6.80126619 1.80433321,6.41505245 2.16971651,6.08106183 C2.53788424,5.74454638 2.96493157,5.47960034 3.43899175,5.29357165 C3.93541111,5.09877076 4.46060702,5 5,5 Z M5,1 C6.10279836,1 7,1.89720164 7,3 C7,4.10279836 6.10279836,5 5,5 C3.89719137,5 3,4.10279836 3,3 C3,1.89720164 3.89720164,1 5,1 Z" id="形状结合"></path>
                </g>
            </g>
            <g id="操作点" transform="translate(249.000000, 69.000000)">
                <path d="M10,0 C15.5228475,-1.01453063e-15 20,4.4771525 20,10 C20,13.0843226 18.6036465,15.8425094 16.4086196,17.6768802 L10,25 L3.59541874,17.6802532 C1.39806633,15.8458915 3.77952173e-16,13.0862137 0,10 C-6.76353751e-16,4.4771525 4.4771525,1.01453063e-15 10,0 Z" id="形状结合" fill="#1951AE" fill-rule="evenodd"></path>
                <text id="1" font-family="PingFangSC-Medium, PingFang SC" font-size="10" font-weight="400" fill="#FFFFFF">
                    <tspan x="8" y="14">1</tspan>
                </text>
            </g>
            <g id="操作点" transform="translate(28.500000, 94.000000)">
                <path d="M11,0 C16.5228475,-1.01453063e-15 21,4.4771525 21,10 C21,13.3641058 19.3388262,16.3402236 16.7920083,18.1528239 L10.5,25 L4.20799169,18.1528239 C1.66117377,16.3402236 4.11984135e-16,13.3641058 0,10 C-6.76353751e-16,4.4771525 4.4771525,1.01453063e-15 10,0 L11,0 Z" id="形状结合" fill="#1951AE" fill-rule="evenodd"></path>
                <text id="1" font-family="PingFangSC-Medium, PingFang SC" font-size="10" font-weight="400" fill="#FFFFFF">
                    <tspan x="8" y="14">2</tspan>
                </text>
            </g>
            <g id="操作点" transform="translate(316.500000, 103.000000)">
                <path d="M11,0 C16.5228475,-1.01453063e-15 21,4.4771525 21,10 C21,13.3641058 19.3388262,16.3402236 16.7920083,18.1528239 L10.5,25 L4.20799169,18.1528239 C1.66117377,16.3402236 4.11984135e-16,13.3641058 0,10 C-6.76353751e-16,4.4771525 4.4771525,1.01453063e-15 10,0 L11,0 Z" id="形状结合" fill="#1951AE" fill-rule="evenodd"></path>
                <text id="1" font-family="PingFangSC-Medium, PingFang SC" font-size="10" font-weight="400" fill="#FFFFFF">
                    <tspan x="8" y="14">5</tspan>
                </text>
            </g>
            <g id="操作点" transform="translate(316.500000, 186.000000)">
                <path d="M11,0 C16.5228475,-1.01453063e-15 21,4.4771525 21,10 C21,13.3641058 19.3388262,16.3402236 16.7920083,18.1528239 L10.5,25 L4.20799169,18.1528239 C1.66117377,16.3402236 4.11984135e-16,13.3641058 0,10 C-6.76353751e-16,4.4771525 4.4771525,1.01453063e-15 10,0 L11,0 Z" id="形状结合" fill="#1951AE" fill-rule="evenodd"></path>
                <text id="1" font-family="PingFangSC-Medium, PingFang SC" font-size="10" font-weight="400" fill="#FFFFFF">
                    <tspan x="8" y="14">6</tspan>
                </text>
            </g>
            <g id="操作点" transform="translate(316.500000, 216.000000)">
                <path d="M11,0 C16.5228475,-1.01453063e-15 21,4.4771525 21,10 C21,13.3641058 19.3388262,16.3402236 16.7920083,18.1528239 L10.5,25 L4.20799169,18.1528239 C1.66117377,16.3402236 4.11984135e-16,13.3641058 0,10 C-6.76353751e-16,4.4771525 4.4771525,1.01453063e-15 10,0 L11,0 Z" id="形状结合" fill="#1951AE" fill-rule="evenodd"></path>
                <text id="1" font-family="PingFangSC-Medium, PingFang SC" font-size="10" font-weight="400" fill="#FFFFFF">
                    <tspan x="8" y="14">7</tspan>
                </text>
            </g>
            <g id="操作点" transform="translate(316.500000, 246.000000)">
                <path d="M11,0 C16.5228475,-1.01453063e-15 21,4.4771525 21,10 C21,13.3641058 19.3388262,16.3402236 16.7920083,18.1528239 L10.5,25 L4.20799169,18.1528239 C1.66117377,16.3402236 4.11984135e-16,13.3641058 0,10 C-6.76353751e-16,4.4771525 4.4771525,1.01453063e-15 10,0 L11,0 Z" id="形状结合" fill="#1951AE" fill-rule="evenodd"></path>
                <text id="1" font-family="PingFangSC-Medium, PingFang SC" font-size="10" font-weight="400" fill="#FFFFFF">
                    <tspan x="8" y="14">8</tspan>
                </text>
            </g>
            <g id="操作点" transform="translate(316.500000, 302.000000)">
                <path d="M11,0 C16.5228475,-1.01453063e-15 21,4.4771525 21,10 C21,13.3641058 19.3388262,16.3402236 16.7920083,18.1528239 L10.5,25 L4.20799169,18.1528239 C1.66117377,16.3402236 4.11984135e-16,13.3641058 0,10 C-6.76353751e-16,4.4771525 4.4771525,1.01453063e-15 10,0 L11,0 Z" id="形状结合" fill="#1951AE" fill-rule="evenodd"></path>
                <text id="1" font-family="PingFangSC-Medium, PingFang SC" font-size="10" font-weight="400" fill="#FFFFFF">
                    <tspan x="8" y="14">9</tspan>
                </text>
            </g>
            <g id="操作点" transform="translate(14.500000, 158.000000)">
                <path d="M11,0 C16.5228475,-1.01453063e-15 21,4.4771525 21,10 C21,13.3641058 19.3388262,16.3402236 16.7920083,18.1528239 L10.5,25 L4.20799169,18.1528239 C1.66117377,16.3402236 4.11984135e-16,13.3641058 0,10 C-6.76353751e-16,4.4771525 4.4771525,1.01453063e-15 10,0 L11,0 Z" id="形状结合" fill="#1951AE" fill-rule="evenodd"></path>
                <text id="1" font-family="PingFangSC-Medium, PingFang SC" font-size="10" font-weight="400" fill="#FFFFFF">
                    <tspan x="8" y="14">3</tspan>
                </text>
            </g>
            <g id="操作点" transform="translate(14.500000, 213.000000)">
                <path d="M11,0 C16.5228475,-1.01453063e-15 21,4.4771525 21,10 C21,13.3641058 19.3388262,16.3402236 16.7920083,18.1528239 L10.5,25 L4.20799169,18.1528239 C1.66117377,16.3402236 4.11984135e-16,13.3641058 0,10 C-6.76353751e-16,4.4771525 4.4771525,1.01453063e-15 10,0 L11,0 Z" id="形状结合" fill="#1951AE" fill-rule="evenodd"></path>
                <text id="1" font-family="PingFangSC-Medium, PingFang SC" font-size="10" font-weight="400" fill="#FFFFFF">
                    <tspan x="8" y="14">4</tspan>
                </text>
            </g>
            <g id="操作点" transform="translate(373.500000, 306.000000)">
                <path d="M16,0 C21.5228475,-1.01453063e-15 26,4.4771525 26,10 C26,14.3516294 23.2204174,18.0540525 19.3398442,19.4286772 L13,25 L6.66215928,19.4293866 C2.78053938,18.0553267 5.3301261e-16,14.3523783 0,10 C-6.76353751e-16,4.4771525 4.4771525,1.01453063e-15 10,0 L16,0 Z" id="形状结合" fill="#1951AE" fill-rule="evenodd"></path>
                <text id="1" font-family="PingFangSC-Medium, PingFang SC" font-size="10" font-weight="400" fill="#FFFFFF">
                    <tspan x="8" y="14">10</tspan>
                </text>
            </g>
            <polyline id="路径-4" stroke="#1951AE" points="39 118 39 125.292893 90 125.292893"></polyline>
            <polyline id="路径-4" stroke="#1951AE" transform="translate(301.500000, 128.646447) scale(-1, 1) translate(-301.500000, -128.646447) " points="276 125 276 132.292893 327 132.292893"></polyline>
            <polyline id="路径-4" stroke="#1951AE" transform="translate(301.500000, 211.646447) scale(-1, 1) translate(-301.500000, -211.646447) " points="276 208 276 215.292893 327 215.292893"></polyline>
            <polyline id="路径-4" stroke="#1951AE" transform="translate(301.500000, 241.646447) scale(-1, 1) translate(-301.500000, -241.646447) " points="276 238 276 245.292893 327 245.292893"></polyline>
            <polyline id="路径-4" stroke="#1951AE" transform="translate(301.500000, 269.646447) scale(-1, 1) translate(-301.500000, -269.646447) " points="276 266 276 273.292893 327 273.292893"></polyline>
            <polyline id="路径-4" stroke="#1951AE" transform="translate(264.000000, 325.646447) scale(-1, 1) translate(-264.000000, -325.646447) " points="201 322 201 329.292893 327 329.292893"></polyline>
            <polyline id="路径-4" stroke="#1951AE" points="25 182 25 189.292893 98 189.292893"></polyline>
            <polyline id="路径-4" stroke="#1951AE" points="25 237 25 244.292893 115 244.292893"></polyline>
            <polyline id="路径-4" stroke="#1951AE" points="386.5 330 386.5 337.292893 436.5 337.292893"></polyline>
        </g>
    </g>
</svg>