<?xml version="1.0" encoding="UTF-8"?>
<svg width="702px" height="654px" viewBox="0 0 702 654" version="1.1" xmlns="http://www.w3.org/2000/svg" xmlns:xlink="http://www.w3.org/1999/xlink">
    <title>编组 8</title>
    <g id="消息搜索" stroke="none" stroke-width="1" fill="none" fill-rule="evenodd">
        <g id="编组-8" transform="translate(1.000000, 1.000000)">
            <g id="编组-12">
                <path d="M700.5,31.5 L-0.5,31.5 L-0.5,648 C-0.5,649.242641 0.00367965644,650.367641 0.818019485,651.181981 C1.63235931,651.99632 2.75735931,652.5 4,652.5 L696,652.5 C697.242641,652.5 698.367641,651.99632 699.181981,651.181981 C699.99632,650.367641 700.5,649.242641 700.5,648 L700.5,31.5 Z" id="矩形" stroke="#979797" fill="#FCFCFC"></path>
                <rect id="Rectangle-7" fill="#EEEEEE" fill-rule="nonzero" x="0" y="106" width="700" height="1"></rect>
                <g id="编组-4" transform="translate(636.000000, 52.000000)">
                    <rect id="Rectangle" fill="#C0C0C0" x="0" y="0" width="34" height="34" rx="2"></rect>
                    <g id="arrow" transform="translate(11.000000, 11.000000)" fill="#FFFFFF" fill-rule="nonzero">
                        <path d="M6.14696607,6.43067019 L6.14696608,6.43067018 C6.15517718,6.42244592 6.16316984,6.41400635 6.17093547,6.4053603 C6.17881888,6.39837056 6.18655866,6.39117336 6.1941229,6.38364104 C6.40249058,6.17528932 6.40249058,5.8375476 6.1941229,5.6292278 L1.22601314,0.661293586 C1.01766142,0.452941865 0.679903749,0.452941865 0.471552029,0.661293586 C0.263296058,0.869645306 0.263296058,1.20729127 0.471552029,1.41564299 L5.06253496,6.00641846 L0.518676924,10.5500531 C0.284392946,10.7844328 0.2632801,11.1431916 0.471536071,11.3515433 C0.679903749,11.5598951 1.03879023,11.5387503 1.27305825,11.3043865 L6.14696608,6.43067018 L6.14696607,6.43067019 Z M11.5283642,6.38364105 C11.7367319,6.17528933 11.7367319,5.83754762 11.5283642,5.62922781 L6.56025444,0.661293598 C6.35188676,0.452941877 6.01411313,0.452941877 5.80579332,0.661293598 C5.59753735,0.869645319 5.59753735,1.20729128 5.80579332,1.415643 L10.3967603,6.00641847 L5.85295013,10.5500531 C5.6186502,10.7844328 5.59753735,11.1431916 5.80579332,11.3515433 C6.01412908,11.5598951 6.37303152,11.5387503 6.60729954,11.3043865 L11.4812074,6.43068615 L11.4812074,6.43068616 C11.4894148,6.42245829 11.4974073,6.41401882 11.5051768,6.40537627 C11.5130602,6.39838653 11.5208159,6.39118933 11.5283642,6.38364105 L11.5283642,6.38364105 Z" id="形状" transform="translate(6.000000, 6.000000) rotate(-270.000000) translate(-6.000000, -6.000000) "></path>
                    </g>
                </g>
                <rect id="Rectangle" stroke="#EEEEEE" fill="#FFFFFF" x="30.5" y="52.5" width="601" height="33" rx="2"></rect>
                <text id="搜索聊天内容" font-family="PingFangSC-Regular, PingFang SC" font-size="14" font-weight="normal" fill="#9B9B9B">
                    <tspan x="58" y="74">搜索聊天内容</tspan>
                </text>
                <path d="M45.2941176,63 C48.2179781,63 50.5882353,65.3702572 50.5882353,68.2941176 C50.5882353,69.5758673 50.1327351,70.7512292 49.374777,71.6671608 L51.8535534,74.1464466 C52.0488155,74.3417088 52.0488155,74.6582912 51.8535534,74.8535534 C51.6582912,75.0488155 51.3417088,75.0488155 51.1464466,74.8535534 L48.6671608,72.374777 C47.7512292,73.1327351 46.5758673,73.5882353 45.2941176,73.5882353 C42.3702572,73.5882353 40,71.2179781 40,68.2941176 C40,65.3702572 42.3702572,63 45.2941176,63 Z M45.2941176,64 C42.922542,64 41,65.922542 41,68.2941176 C41,70.6656933 42.922542,72.5882353 45.2941176,72.5882353 C47.6656933,72.5882353 49.5882353,70.6656933 49.5882353,68.2941176 C49.5882353,65.922542 47.6656933,64 45.2941176,64 Z" id="形状结合" fill="#9B9B9B" fill-rule="nonzero"></path>
                <path d="M700.5,-0.5 L-0.5,-0.5 L-0.5,32.5 L700.5,32.5 L700.5,-0.5 Z" id="Fill-1" stroke="#979797" fill="#FFFFFF"></path>
                <text id="FinChat" font-family="PingFangSC-Regular, PingFang SC" font-size="14" font-weight="normal" fill="#868686">
                    <tspan x="12" y="21">FinChat</tspan>
                </text>
                <g id="编组-19" transform="translate(668.000000, 0.000000)">
                    <polygon id="Fill-2" points="0 32 32 32 32 0 0 0"></polygon>
                    <path d="M21.25,10 L21.957,10.6865455 L16.685,15.798 L21.957,20.9090909 L21.25,21.5956364 L15.978,16.483 L10.707,21.5956364 L10,20.9090909 L15.271,15.798 L10,10.6865455 L10.707,10 L15.978,15.112 L21.25,10 Z" id="Fill-7" fill="#959595"></path>
                </g>
                <g id="编组-17" transform="translate(636.000000, 0.000000)">
                    <polygon id="Fill-9" points="0 32 32 32 32 0 0 0"></polygon>
                    <rect id="Rectangle-16" stroke="#959595" x="10.5" y="10.5" width="11" height="10.6363636"></rect>
                </g>
                <g id="编组-3" transform="translate(604.000000, 0.000000)">
                    <polygon id="Fill-17" points="0 32 32 32 32 0 0 0"></polygon>
                    <polygon id="Fill-24" fill="#959595" points="10 16 22 16 22 16.969697 10 16.969697"></polygon>
                </g>
                <g id="编组-2" transform="translate(300.000000, 292.000000)" fill="#EEEEEE">
                    <path d="M28.5107845,6 C18.1660346,6 10.0047405,14.2059882 10.0047405,24.5090178 L10.0047405,24.5090178 L10,72.8069584 C10,73.1422069 10.2118986,73.4455214 10.345461,73.753078 L10.345461,73.753078 C10.4688315,74.0368314 10.6447025,74.2951319 10.8644228,74.513721 L10.8644228,74.513721 L33.0449159,96.6048899 C33.0449159,96.6048899 33.0815359,96.6362347 33.0983645,96.6522607 L33.0983645,96.6522607 C33.3383503,96.8832227 33.6476653,96.9987038 33.9568618,97 L33.9568618,97 L33.9672908,97 C34.2910642,96.9987038 34.6138895,96.872146 34.8567196,96.6219764 L34.8567196,96.6219764 C35.1287035,96.3409332 35.1825077,95.8720566 35.1943589,95.604447 L35.1943589,95.604447 C35.2032472,95.4032979 35.2318085,94.7028701 35.2405783,94.4924118 L35.2405783,94.4924118 L35.2309789,26.2055285 C35.2309789,24.4981768 36.9973927,22.7092812 38.7118986,22.7092812 L38.7118986,22.7092812 L68.9232046,22.7361482 C69.9003318,22.7361482 70.5688552,23.5772744 70.5688552,24.9239247 L70.5688552,24.9239247 L70.5597298,31.7381308 C70.5597298,33.0616848 70.0841432,33.6916457 69.0119697,33.6916457 L69.0119697,33.6916457 L48.453662,33.6846933 C47.4305523,33.6846933 46.9774828,34.2332282 46.9774828,35.1939597 L46.9774828,35.1939597 L46.9785494,45.9564389 C46.9785494,47.2310903 47.7849016,47.8288814 48.7789761,47.8288814 L48.7789761,47.8288814 L60.731453,47.8399581 C61.9479735,47.8399581 62.2866793,48.6913362 62.2866793,49.6079964 L62.2866793,49.6079964 L62.2668879,56.9395104 C62.2668879,58.4156644 61.6898554,58.8081821 60.6078455,58.8081821 L60.6078455,58.8081821 L48.7169945,58.7989907 C47.4773643,58.7989907 47.0833136,59.6236196 47.0833136,60.4431815 L47.0833136,60.4431815 L47.0957573,77.7684008 C47.0920834,78.3838676 47.3654895,78.9683431 48.5267836,78.9430079 L48.5267836,78.9430079 L70.808841,78.9355842 C81.1539464,78.9355842 89.9937189,71.3365784 89.9937189,61.0335488 L89.9937189,61.0335488 L90,24.8719582 C90,14.5689286 81.1215928,6.01366918 70.7766058,6.01366918 L70.7766058,6.01366918 L70.7764873,6.00117838 L28.5107845,6 Z" id="Fill-1"></path>
                </g>
            </g>
            <g id="操作点" transform="translate(358.000000, 218.000000)">
                <path d="M10,0 C15.5228475,-1.01453063e-15 20,4.4771525 20,10 C20,13.0843226 18.6036465,15.8425094 16.4086196,17.6768802 L10,25 L3.59541874,17.6802532 C1.39806633,15.8458915 3.77952173e-16,13.0862137 0,10 C-6.76353751e-16,4.4771525 4.4771525,1.01453063e-15 10,0 Z" id="形状结合" fill="#1951AE" fill-rule="evenodd"></path>
                <text id="1" font-family="PingFangSC-Medium, PingFang SC" font-size="10" font-weight="400" fill="#FFFFFF">
                    <tspan x="8" y="14">1</tspan>
                </text>
            </g>
        </g>
    </g>
</svg>