<?xml version="1.0" encoding="UTF-8"?>
<svg width="1050px" height="300px" viewBox="0 0 1050 300" version="1.1" xmlns="http://www.w3.org/2000/svg" xmlns:xlink="http://www.w3.org/1999/xlink">
    <title>编组 4</title>
    <g id="设置昵称" stroke="none" stroke-width="1" fill="none" fill-rule="evenodd">
        <g transform="translate(-66.000000, -47.000000)" id="编组-4">
            <g transform="translate(66.000000, 47.000000)">
                <g id="编组-3">
                    <g id="编组" transform="translate(270.000000, 0.000000)" fill="#FFFFFF" stroke="#EEEEEE">
                        <rect id="Rectangle-6-Copy-21" x="0.5" y="0.5" width="239" height="299" rx="2"></rect>
                    </g>
                    <g id="编组" transform="translate(540.000000, 0.000000)" fill="#FFFFFF" stroke="#EEEEEE">
                        <rect id="Rectangle-6-Copy-21" x="0.5" y="0.5" width="239" height="299" rx="2"></rect>
                    </g>
                    <g id="编组-2" transform="translate(328.000000, 70.000000)">
                        <rect id="矩形" stroke="#4285F4" fill="#FFFFFF" x="0.5" y="0.5" width="161" height="19" rx="2"></rect>
                        <text id="请输入昵称" font-family="PingFangSC-Regular, PingFang SC" font-size="12" font-weight="normal" fill="#9B9B9B">
                            <tspan x="6" y="15">请输入昵称</tspan>
                        </text>
                        <rect id="矩形" fill="#4285F4" x="5" y="3" width="1" height="14"></rect>
                    </g>
                    <rect id="矩形" stroke="#4285F4" fill="#FFFFFF" x="598.5" y="70.5" width="161" height="19" rx="2"></rect>
                    <g id="编组" fill="#FFFFFF" stroke="#EEEEEE">
                        <rect id="Rectangle-6-Copy-21" x="0.5" y="0.5" width="239" height="299" rx="2"></rect>
                    </g>
                    <g id="编组" transform="translate(810.000000, 0.000000)" fill="#FFFFFF" stroke="#EEEEEE">
                        <rect id="Rectangle-6-Copy-21" x="0.5" y="0.5" width="239" height="299" rx="2"></rect>
                    </g>
                    <text id="昵称-:" font-family="PingFangSC-Regular, PingFang SC" font-size="12" font-weight="normal" fill="#111111">
                        <tspan x="20" y="85">昵称 :</tspan>
                    </text>
                    <text id="昵称-:" font-family="PingFangSC-Regular, PingFang SC" font-size="12" font-weight="normal" fill="#111111">
                        <tspan x="830" y="85">昵称 :</tspan>
                    </text>
                    <text id="昵称-:" font-family="PingFangSC-Regular, PingFang SC" font-size="12" font-weight="normal" fill="#111111">
                        <tspan x="290" y="85">昵称 :</tspan>
                    </text>
                    <text id="昵称-:" font-family="PingFangSC-Regular, PingFang SC" font-size="12" font-weight="normal" fill="#111111">
                        <tspan x="560" y="85">昵称 :</tspan>
                    </text>
                    <text id="部门-:" font-family="PingFangSC-Regular, PingFang SC" font-size="12" font-weight="normal" fill="#111111">
                        <tspan x="20" y="107">部门 :</tspan>
                    </text>
                    <text id="部门-:" font-family="PingFangSC-Regular, PingFang SC" font-size="12" font-weight="normal" fill="#111111">
                        <tspan x="830" y="107">部门 :</tspan>
                    </text>
                    <text id="部门-:" font-family="PingFangSC-Regular, PingFang SC" font-size="12" font-weight="normal" fill="#111111">
                        <tspan x="290" y="107">部门 :</tspan>
                    </text>
                    <text id="部门-:" font-family="PingFangSC-Regular, PingFang SC" font-size="12" font-weight="normal" fill="#111111">
                        <tspan x="560" y="107">部门 :</tspan>
                    </text>
                    <text id="邮箱-:-copy" font-family="PingFangSC-Regular, PingFang SC" font-size="12" font-weight="normal" fill="#111111">
                        <tspan x="20" y="151">邮箱 :</tspan>
                    </text>
                    <text id="邮箱-:-copy" font-family="PingFangSC-Regular, PingFang SC" font-size="12" font-weight="normal" fill="#111111">
                        <tspan x="830" y="151">邮箱 :</tspan>
                    </text>
                    <text id="邮箱-:-copy" font-family="PingFangSC-Regular, PingFang SC" font-size="12" font-weight="normal" fill="#111111">
                        <tspan x="290" y="151">邮箱 :</tspan>
                    </text>
                    <text id="邮箱-:-copy" font-family="PingFangSC-Regular, PingFang SC" font-size="12" font-weight="normal" fill="#111111">
                        <tspan x="560" y="151">邮箱 :</tspan>
                    </text>
                    <text id="地址-:" font-family="PingFangSC-Regular, PingFang SC" font-size="12" font-weight="normal" fill="#111111">
                        <tspan x="20" y="129">地址 :</tspan>
                    </text>
                    <text id="地址-:" font-family="PingFangSC-Regular, PingFang SC" font-size="12" font-weight="normal" fill="#111111">
                        <tspan x="830" y="129">地址 :</tspan>
                    </text>
                    <text id="地址-:" font-family="PingFangSC-Regular, PingFang SC" font-size="12" font-weight="normal" fill="#111111">
                        <tspan x="290" y="129">地址 :</tspan>
                    </text>
                    <text id="地址-:" font-family="PingFangSC-Regular, PingFang SC" font-size="12" font-weight="normal" fill="#111111">
                        <tspan x="560" y="129">地址 :</tspan>
                    </text>
                    <text id="设置昵称" font-family="PingFangSC-Regular, PingFang SC" font-size="12" font-weight="normal" fill="#9B9B9B">
                        <tspan x="58" y="85">设置昵称</tspan>
                    </text>
                    <text id="43wgsdfgs维护过任务问..." font-family="PingFangSC-Regular, PingFang SC" font-size="12" font-weight="normal" fill="#111111">
                        <tspan x="868" y="85">43wgsdfgs维护过任务问...</tspan>
                    </text>
                    <text id="李秀梁" font-family="PingFangSC-Regular, PingFang SC" font-size="12" font-weight="normal" fill="#111111">
                        <tspan x="602" y="84">李秀梁</tspan>
                    </text>
                    <rect id="矩形" fill="#4285F4" x="639" y="73" width="1" height="14"></rect>
                    <text id="某某某某事业部" font-family="PingFangSC-Regular, PingFang SC" font-size="12" font-weight="normal" fill="#111111">
                        <tspan x="58" y="107">某某某某事业部</tspan>
                    </text>
                    <text id="某某某某事业部" font-family="PingFangSC-Regular, PingFang SC" font-size="12" font-weight="normal" fill="#111111">
                        <tspan x="868" y="107">某某某某事业部</tspan>
                    </text>
                    <text id="某某某某事业部" font-family="PingFangSC-Regular, PingFang SC" font-size="12" font-weight="normal" fill="#111111">
                        <tspan x="328" y="107">某某某某事业部</tspan>
                    </text>
                    <text id="某某某某事业部" font-family="PingFangSC-Regular, PingFang SC" font-size="12" font-weight="normal" fill="#111111">
                        <tspan x="598" y="107">某某某某事业部</tspan>
                    </text>
                    <text id="dazhi.li002@icbc.com-copy" font-family="PingFangSC-Regular, PingFang SC" font-size="12" font-weight="normal" fill="#111111">
                        <tspan x="58" y="151">dazhi.li002@icbc.com.cn</tspan>
                    </text>
                    <text id="dazhi.li002@icbc.com-copy" font-family="PingFangSC-Regular, PingFang SC" font-size="12" font-weight="normal" fill="#111111">
                        <tspan x="868" y="151">dazhi.li002@icbc.com.cn</tspan>
                    </text>
                    <text id="dazhi.li002@icbc.com-copy" font-family="PingFangSC-Regular, PingFang SC" font-size="12" font-weight="normal" fill="#111111">
                        <tspan x="328" y="151">dazhi.li002@icbc.com.cn</tspan>
                    </text>
                    <text id="dazhi.li002@icbc.com-copy" font-family="PingFangSC-Regular, PingFang SC" font-size="12" font-weight="normal" fill="#111111">
                        <tspan x="598" y="151">dazhi.li002@icbc.com.cn</tspan>
                    </text>
                    <text id="上海市浦东新区某条" font-family="PingFangSC-Regular, PingFang SC" font-size="12" font-weight="normal" fill="#111111">
                        <tspan x="58" y="129">上海市浦东新区某条</tspan>
                    </text>
                    <text id="上海市浦东新区某条" font-family="PingFangSC-Regular, PingFang SC" font-size="12" font-weight="normal" fill="#111111">
                        <tspan x="868" y="129">上海市浦东新区某条</tspan>
                    </text>
                    <text id="上海市浦东新区某条" font-family="PingFangSC-Regular, PingFang SC" font-size="12" font-weight="normal" fill="#111111">
                        <tspan x="328" y="129">上海市浦东新区某条</tspan>
                    </text>
                    <text id="上海市浦东新区某条" font-family="PingFangSC-Regular, PingFang SC" font-size="12" font-weight="normal" fill="#111111">
                        <tspan x="598" y="129">上海市浦东新区某条</tspan>
                    </text>
                    <text id="杨万敏" font-family="PingFangSC-Regular, PingFang SC" font-size="16" font-weight="normal" fill="#1951AE">
                        <tspan x="72" y="46">杨万敏</tspan>
                    </text>
                    <text id="杨万敏" font-family="PingFangSC-Regular, PingFang SC" font-size="16" font-weight="normal" fill="#1951AE">
                        <tspan x="882" y="46">杨万敏</tspan>
                    </text>
                    <text id="杨万敏" font-family="PingFangSC-Regular, PingFang SC" font-size="16" font-weight="normal" fill="#1951AE">
                        <tspan x="342" y="46">杨万敏</tspan>
                    </text>
                    <text id="杨万敏" font-family="PingFangSC-Regular, PingFang SC" font-size="16" font-weight="normal" fill="#1951AE">
                        <tspan x="612" y="46">杨万敏</tspan>
                    </text>
                    <rect id="Rectangle-Copy-6" fill="#E5E5E5" x="20" y="20" width="40" height="40" rx="2"></rect>
                    <rect id="Rectangle-Copy-6" fill="#E5E5E5" x="830" y="20" width="40" height="40" rx="2"></rect>
                    <rect id="Rectangle-Copy-6" fill="#E5E5E5" x="290" y="20" width="40" height="40" rx="2"></rect>
                    <rect id="Rectangle-Copy-6" fill="#E5E5E5" x="560" y="20" width="40" height="40" rx="2"></rect>
                    <g id="编辑" transform="translate(110.000000, 75.000000)" fill="#9B9B9B" fill-rule="nonzero">
                        <path d="M11.7626282,2.90546486 L5.64345927,9.05157254 C5.34783871,9.3471931 4.86843822,9.3471931 4.57281873,9.05157254 C4.27719817,8.75601161 4.27719817,8.27685069 4.57281873,7.98123014 L10.6919876,1.83512246 C10.9876678,1.5395019 11.4670694,1.5395019 11.7626282,1.83512246 C12.0583084,2.13074301 12.0583084,2.60990393 11.7626282,2.90546486 Z M2.07284736,1.65073752 C1.0546934,1.6400318 1.11590548,1.65073752 1.11590548,2.73392109 L1.10720548,9.52077867 C1.14848558,10.1750799 1.38080652,10.3491406 2.20364548,10.3491406 L1.10768463,10.3421206 L1.10768463,10.3537606 L9.80955782,10.3491406 L9.80817782,9.33987892 L9.80139781,10.341701 L8.70418052,10.349021 C9.62056198,10.349021 9.80548654,10.1355403 9.80818041,9.27975405 L9.8052404,6.5336709 C9.80524035,6.23326244 10.0486721,5.98982963 10.3489617,5.98982963 C10.6495435,5.98986283 10.8930094,6.23332958 10.8930424,6.53367028 L10.8965824,9.80487849 L10.8928024,10.3487798 C10.8928024,10.9495006 10.4057813,11.4365206 9.80499767,11.4365206 L9.22707687,11.4365206 L1.68073862,11.4411406 L1.68073862,11.4365206 L1.10275713,11.4365206 C0.518656387,11.4365206 0.0457350469,10.9750594 0.0198716953,10.3971982 L0.015611685,1.64204376 C0.0177716955,1.06010237 0.478152547,0.589341459 1.0546934,0.563779438 L9.26900674,0.558859428 C9.56948693,0.558859428 9.81284733,0.802579725 9.81284733,1.10270002 C9.81295103,1.40304083 9.56960301,1.64655775 9.26931448,1.64666103 L2.07284736,1.65073752 Z" id="形状"></path>
                    </g>
                    <g id="编辑" transform="translate(1018.000000, 75.000000)" fill="#9B9B9B" fill-rule="nonzero">
                        <path d="M11.7626282,2.90546486 L5.64345927,9.05157254 C5.34783871,9.3471931 4.86843822,9.3471931 4.57281873,9.05157254 C4.27719817,8.75601161 4.27719817,8.27685069 4.57281873,7.98123014 L10.6919876,1.83512246 C10.9876678,1.5395019 11.4670694,1.5395019 11.7626282,1.83512246 C12.0583084,2.13074301 12.0583084,2.60990393 11.7626282,2.90546486 Z M2.07284736,1.65073752 C1.0546934,1.6400318 1.11590548,1.65073752 1.11590548,2.73392109 L1.10720548,9.52077867 C1.14848558,10.1750799 1.38080652,10.3491406 2.20364548,10.3491406 L1.10768463,10.3421206 L1.10768463,10.3537606 L9.80955782,10.3491406 L9.80817782,9.33987892 L9.80139781,10.341701 L8.70418052,10.349021 C9.62056198,10.349021 9.80548654,10.1355403 9.80818041,9.27975405 L9.8052404,6.5336709 C9.80524035,6.23326244 10.0486721,5.98982963 10.3489617,5.98982963 C10.6495435,5.98986283 10.8930094,6.23332958 10.8930424,6.53367028 L10.8965824,9.80487849 L10.8928024,10.3487798 C10.8928024,10.9495006 10.4057813,11.4365206 9.80499767,11.4365206 L9.22707687,11.4365206 L1.68073862,11.4411406 L1.68073862,11.4365206 L1.10275713,11.4365206 C0.518656387,11.4365206 0.0457350469,10.9750594 0.0198716953,10.3971982 L0.015611685,1.64204376 C0.0177716955,1.06010237 0.478152547,0.589341459 1.0546934,0.563779438 L9.26900674,0.558859428 C9.56948693,0.558859428 9.81284733,0.802579725 9.81284733,1.10270002 C9.81295103,1.40304083 9.56960301,1.64655775 9.26931448,1.64666103 L2.07284736,1.65073752 Z" id="形状"></path>
                    </g>
                </g>
                <g id="操作点" transform="translate(107.000000, 48.000000)">
                    <path d="M10,0 C15.5228475,-1.01453063e-15 20,4.4771525 20,10 C20,13.0843226 18.6036465,15.8425094 16.4086196,17.6768802 L10,25 L3.59541874,17.6802532 C1.39806633,15.8458915 3.77952173e-16,13.0862137 0,10 C-6.76353751e-16,4.4771525 4.4771525,1.01453063e-15 10,0 Z" id="形状结合" fill="#1951AE" fill-rule="evenodd"></path>
                    <text id="1" font-family="PingFangSC-Medium, PingFang SC" font-size="10" font-weight="400" fill="#FFFFFF">
                        <tspan x="8" y="14">1</tspan>
                    </text>
                </g>
                <g id="操作点" transform="translate(411.500000, 43.000000)">
                    <path d="M11,0 C16.5228475,-1.01453063e-15 21,4.4771525 21,10 C21,13.3641058 19.3388262,16.3402236 16.7920083,18.1528239 L10.5,25 L4.20799169,18.1528239 C1.66117377,16.3402236 4.11984135e-16,13.3641058 0,10 C-6.76353751e-16,4.4771525 4.4771525,1.01453063e-15 10,0 L11,0 Z" id="形状结合" fill="#1951AE" fill-rule="evenodd"></path>
                    <text id="1" font-family="PingFangSC-Medium, PingFang SC" font-size="10" font-weight="400" fill="#FFFFFF">
                        <tspan x="8" y="14">2</tspan>
                    </text>
                </g>
                <g id="操作点" transform="translate(950.000000, 48.000000)">
                    <path d="M11,0 C16.5228475,-1.01453063e-15 21,4.4771525 21,10 C21,13.3641058 19.3388262,16.3402236 16.7920083,18.1528239 L10.5,25 L4.20799169,18.1528239 C1.66117377,16.3402236 4.11984135e-16,13.3641058 0,10 C-6.76353751e-16,4.4771525 4.4771525,1.01453063e-15 10,0 L11,0 Z" id="形状结合" fill="#1951AE" fill-rule="evenodd"></path>
                    <text id="1" font-family="PingFangSC-Medium, PingFang SC" font-size="10" font-weight="400" fill="#FFFFFF">
                        <tspan x="8" y="14">4</tspan>
                    </text>
                </g>
                <g id="操作点" transform="translate(680.000000, 43.000000)">
                    <path d="M11,0 C16.5228475,-1.01453063e-15 21,4.4771525 21,10 C21,13.3641058 19.3388262,16.3402236 16.7920083,18.1528239 L10.5,25 L4.20799169,18.1528239 C1.66117377,16.3402236 4.11984135e-16,13.3641058 0,10 C-6.76353751e-16,4.4771525 4.4771525,1.01453063e-15 10,0 L11,0 Z" id="形状结合" fill="#1951AE" fill-rule="evenodd"></path>
                    <text id="1" font-family="PingFangSC-Medium, PingFang SC" font-size="10" font-weight="400" fill="#FFFFFF">
                        <tspan x="8" y="14">3</tspan>
                    </text>
                </g>
            </g>
        </g>
    </g>
</svg>