<?xml version="1.0" encoding="UTF-8"?>
<svg width="449px" height="436px" viewBox="0 0 449 436" version="1.1" xmlns="http://www.w3.org/2000/svg" xmlns:xlink="http://www.w3.org/1999/xlink">
    <title>编组 24</title>
    <defs>
        <rect id="path-1" x="0" y="0" width="223" height="48"></rect>
        <filter x="-3.1%" y="-10.4%" width="106.3%" height="129.2%" filterUnits="objectBoundingBox" id="filter-2">
            <feOffset dx="0" dy="2" in="SourceAlpha" result="shadowOffsetOuter1"></feOffset>
            <feGaussianBlur stdDeviation="2" in="shadowOffsetOuter1" result="shadowBlurOuter1"></feGaussianBlur>
            <feColorMatrix values="0 0 0 0 0   0 0 0 0 0   0 0 0 0 0  0 0 0 0.5 0" type="matrix" in="shadowBlurOuter1"></feColorMatrix>
        </filter>
    </defs>
    <g id="workspace" stroke="none" stroke-width="1" fill="none" fill-rule="evenodd">
        <g id="画板" transform="translate(-78.000000, -1058.000000)">
            <g id="编组-24" transform="translate(79.000000, 1059.000000)">
                <rect id="矩形" stroke="#979797" fill="#F4F9E3" x="0" y="0" width="447" height="434"></rect>
                <rect id="矩形" fill="#E4E4E4" x="0" y="42" width="447" height="392"></rect>
                <rect id="矩形" fill="#FF0000" opacity="0.185267857" x="0" y="42" width="149" height="392"></rect>
                <rect id="矩形" fill="#000000" opacity="0.185267857" x="0" y="42" width="447" height="131"></rect>
                <rect id="矩形" fill="#000000" opacity="0.185267857" x="0" y="303" width="447" height="131"></rect>
                <rect id="矩形" fill="#FF0000" opacity="0.185267857" x="298" y="42" width="149" height="392"></rect>
                <text id="左分割" font-family="PingFangSC-Medium, PingFang SC" font-size="16" font-weight="400" fill="#FF000E">
                    <tspan x="50" y="374">左分割</tspan>
                </text>
                <text id="左分割" font-family="PingFangSC-Medium, PingFang SC" font-size="16" font-weight="400" fill="#FF000E">
                    <tspan x="50" y="278">左分割</tspan>
                </text>
                <text id="左分割" font-family="PingFangSC-Medium, PingFang SC" font-size="16" font-weight="400" fill="#FF000E">
                    <tspan x="50" y="113">左分割</tspan>
                </text>
                <text id="上分割" font-family="PingFangSC-Medium, PingFang SC" font-size="16" font-weight="400" fill="#FF000E">
                    <tspan x="200" y="113">上分割</tspan>
                </text>
                <text id="下分割" font-family="PingFangSC-Medium, PingFang SC" font-size="16" font-weight="400" fill="#FF000E">
                    <tspan x="200" y="374">下分割</tspan>
                </text>
                <text id="判断" font-family="PingFangSC-Medium, PingFang SC" font-size="16" font-weight="400" fill="#00A438">
                    <tspan x="208" y="283">判断</tspan>
                </text>
                <text id="右分割" font-family="PingFangSC-Medium, PingFang SC" font-size="16" font-weight="400" fill="#FF000E">
                    <tspan x="354" y="374">右分割</tspan>
                </text>
                <text id="右分割" font-family="PingFangSC-Medium, PingFang SC" font-size="16" font-weight="400" fill="#FF000E">
                    <tspan x="354" y="244">右分割</tspan>
                </text>
                <text id="右分割" font-family="PingFangSC-Medium, PingFang SC" font-size="16" font-weight="400" fill="#FF000E">
                    <tspan x="354" y="111">右分割</tspan>
                </text>
                <g id="编组-22" transform="translate(46.000000, 195.000000)">
                    <g id="编组-15">
                        <g id="矩形">
                            <use fill="black" fill-opacity="1" filter="url(#filter-2)" xlink:href="#path-1"></use>
                            <use fill="#FFFFFF" fill-rule="evenodd" xlink:href="#path-1"></use>
                        </g>
                        <text id="房间4" font-family="PingFangSC-Medium, PingFang SC" font-size="16" font-weight="400" fill="#4285F4">
                            <tspan x="90.7" y="30">房间4</tspan>
                        </text>
                    </g>
                    <g id="Cursors-/-Move" transform="translate(184.000000, 24.000000)">
                        <g transform="translate(8.000000, 8.000000)">
                            <path d="M9.97732426,4.98866213 L10.9750567,4.98866213 L10.9750567,5.98639456 L9.97732426,5.98639456 L9.97732426,4.98866213 Z M10.9750567,10.9750567 L9.97732426,10.9750567 L9.97732426,9.97732426 L10.9750567,9.97732426 L10.9750567,10.9750567 Z M5.98639456,5.98639456 L4.98866213,5.98639456 L4.98866213,4.98866213 L5.98639456,4.98866213 L5.98639456,5.98639456 Z M5.98639456,10.9750567 L4.98866213,10.9750567 L4.98866213,9.97732426 L5.98639456,9.97732426 L5.98639456,10.9750567 Z M7.98185941,0.0129705215 L0.0149659864,7.98285714 L5.22512472,13.1920181 L7.98185941,15.9487528 L15.9477551,7.98185941 L7.98185941,0.0129705215 Z" id="Outline" fill="#FFFFFF"></path>
                            <polygon id="Arrows" fill="#000000" points="11.9821678 7.00118821 11.9821678 5.1763356 14.5333696 7.97896599 11.9811701 10.7805986 11.9821678 8.97669841 8.96692063 8.97669841 8.96692063 11.9747846 10.7678277 11.9747846 7.96918821 14.5449433 5.16855329 11.9737868 6.99240816 11.9747846 6.99240816 8.97669841 3.99033107 8.97669841 3.9913288 10.7805986 1.425161 7.97896599 3.99033107 5.1763356 3.99033107 7.00118821 6.9844263 7.00118821 6.9844263 3.98993197 5.17952834 3.98993197 7.98215873 1.42575964 10.7827937 3.99092971 8.97989116 3.98993197 8.97989116 7.00118821"></polygon>
                        </g>
                    </g>
                </g>
                <g id="编组-10">
                    <g id="编组-3">
                        <rect id="矩形" stroke="#979797" fill="#EDE3F9" x="0" y="0" width="447" height="42"></rect>
                        <text id="标签栏（tabbar）" font-family="PingFangSC-Medium, PingFang SC" font-size="12" font-weight="400" fill="#691FC2">
                            <tspan x="311" y="25">标签栏（tabbar）</tspan>
                        </text>
                        <g id="编组-19" transform="translate(414.000000, 19.000000)" fill="#666666">
                            <circle id="椭圆形" cx="21.6" cy="2.4" r="2.4"></circle>
                            <circle id="椭圆形" cx="12" cy="2.4" r="2.4"></circle>
                            <circle id="椭圆形" cx="2.4" cy="2.4" r="2.4"></circle>
                        </g>
                    </g>
                    <g id="编组-2" transform="translate(130.000000, 0.000000)">
                        <rect id="矩形" stroke="#979797" fill="#FFF4F4" x="0" y="0" width="130" height="42"></rect>
                        <g id="编组-20" transform="translate(105.000000, 12.000000)">
                            <circle id="椭圆形" fill="#888888" cx="9" cy="9" r="9"></circle>
                            <path d="M9.5,4 L9.5,8.5 L14,8.5 L14,9.5 L9.5,9.5 L9.5,14 L8.5,14 L8.5,9.5 L4,9.5 L4,8.5 L8.5,8.5 L8.5,4 L9.5,4 Z" id="形状结合" fill="#FFFFFF" transform="translate(9.000000, 9.000000) rotate(45.000000) translate(-9.000000, -9.000000) "></path>
                        </g>
                        <text id="应用" font-family="PingFangSC-Medium, PingFang SC" font-size="16" font-weight="400" fill="#8E1414">
                            <tspan x="14" y="27">应用</tspan>
                        </text>
                    </g>
                    <g id="编组-2">
                        <rect id="矩形" stroke="#979797" fill="#FFF4F4" x="0" y="0" width="130" height="42"></rect>
                        <g id="编组-20" transform="translate(105.000000, 12.000000)">
                            <circle id="椭圆形" fill="#888888" cx="9" cy="9" r="9"></circle>
                            <path d="M9.5,4 L9.5,8.5 L14,8.5 L14,9.5 L9.5,9.5 L9.5,14 L8.5,14 L8.5,9.5 L4,9.5 L4,8.5 L8.5,8.5 L8.5,4 L9.5,4 Z" id="形状结合" fill="#FFFFFF" transform="translate(9.000000, 9.000000) rotate(45.000000) translate(-9.000000, -9.000000) "></path>
                        </g>
                        <text id="房间" font-family="PingFangSC-Medium, PingFang SC" font-size="16" font-weight="400" fill="#8E1414">
                            <tspan x="14" y="27">房间</tspan>
                        </text>
                    </g>
                </g>
            </g>
        </g>
    </g>
</svg>