<?xml version="1.0" encoding="UTF-8"?>
<svg width="602px" height="396px" viewBox="0 0 602 396" version="1.1" xmlns="http://www.w3.org/2000/svg" xmlns:xlink="http://www.w3.org/1999/xlink">
    <title>编组 47</title>
    <g id="订阅" stroke="none" stroke-width="1" fill="none" fill-rule="evenodd">
        <g id="编组-47" transform="translate(1.000000, 1.000000)">
            <rect id="Mask" stroke="#D9D9D9" fill="#FFFFFF" x="-0.5" y="-0.5" width="601" height="395" rx="2"></rect>
            <rect id="矩形" stroke="#EA4335" fill="#FFFFFF" x="20.5" y="112.5" width="559" height="35" rx="2"></rect>
            <text id="15/16" font-family="PingFangSC-Regular, PingFang SC" font-size="14" font-weight="normal" fill="#CCCCCC">
                <tspan x="536.972" y="135">15/16</tspan>
            </text>
            <rect id="矩形" stroke="#EEEEEE" fill="#FAFAFA" x="190.5" y="202.5" width="389" height="31" rx="2"></rect>
            <rect id="矩形" stroke="#EEEEEE" fill="#FAFAFA" x="20.5" y="202.5" width="159" height="31" rx="2"></rect>
            <g id="编组-3" transform="translate(500.000000, 346.000000)">
                <rect id="Rectangle-13" stroke="#DDDDDD" fill="#DDDDDD" x="0.5" y="0.5" width="79" height="27" rx="2"></rect>
                <text id="确定" font-family="PingFangSC-Regular, PingFang SC" font-size="12" font-weight="normal" fill="#FFFFFF">
                    <tspan x="28" y="19">确定</tspan>
                </text>
            </g>
            <g id="编组" transform="translate(404.000000, 346.000000)">
                <rect id="Rectangle-13" stroke="#DFDFDF" fill="#FFFFFF" x="0.5" y="0.5" width="79" height="27" rx="2"></rect>
                <text id="取消" font-family="PingFangSC-Regular, PingFang SC" font-size="12" font-weight="normal" fill="#666666">
                    <tspan x="28" y="18">取消</tspan>
                </text>
            </g>
            <text id="创建订阅" font-family="PingFangSC-Regular, PingFang SC" font-size="20" font-weight="normal" fill="#111111">
                <tspan x="20" y="37">创建订阅</tspan>
            </text>
            <text id="通过设置筛选规则，跟踪并聚合你关心的消息" font-family="PingFangSC-Regular, PingFang SC" font-size="14" font-weight="normal" fill="#9B9B9B">
                <tspan x="20" y="61">通过设置筛选规则，跟踪并聚合你关心的消息</tspan>
            </text>
            <text id="二十年时间建立起完整的工业体系吧" font-family="PingFangSC-Regular, PingFang SC" font-size="14" font-weight="normal" fill="#111111">
                <tspan x="30" y="135">二十年时间建立起完整的工业体系吧</tspan>
            </text>
            <text id="请输入关键词" font-family="PingFangSC-Regular, PingFang SC" font-size="14" font-weight="normal" fill="#CCCCCC">
                <tspan x="200" y="223">请输入关键词</tspan>
            </text>
            <text id="关键词" font-family="PingFangSC-Regular, PingFang SC" font-size="14" font-weight="normal" fill="#111111">
                <tspan x="30" y="223">关键词</tspan>
            </text>
            <text id="订阅名称" font-family="PingFangSC-Semibold, PingFang SC" font-size="14" font-weight="500" fill="#111111">
                <tspan x="20" y="101">订阅名称</tspan>
            </text>
            <text id="消息来源" font-family="PingFangSC-Semibold, PingFang SC" font-size="14" font-weight="500" fill="#111111">
                <tspan x="20" y="295">消息来源</tspan>
            </text>
            <text id="消息包含内容" font-family="PingFangSC-Semibold, PingFang SC" font-size="14" font-weight="500" fill="#111111">
                <tspan x="20" y="191">消息包含内容</tspan>
            </text>
            <text id="已存在相同订阅" font-family="PingFangSC-Regular, PingFang SC" font-size="12" font-weight="normal" fill="#EA4335">
                <tspan x="20" y="164">已存在相同订阅</tspan>
            </text>
            <text id="匹配任一内容" font-family="PingFangSC-Regular, PingFang SC" font-size="12" font-weight="normal" fill="#4285F4">
                <tspan x="114" y="191">匹配任一内容</tspan>
            </text>
            <g id="编组-5" transform="translate(20.000000, 240.000000)">
                <text id="添加内容" font-family="PingFangSC-Regular, PingFang SC" font-size="14" font-weight="normal" fill="#4285F4">
                    <tspan x="16" y="15">添加内容</tspan>
                </text>
                <g id="编组-4" transform="translate(0.000000, 3.000000)">
                    <rect id="矩形" fill-opacity="0" fill="#D8D8D8" x="0" y="0" width="14" height="14"></rect>
                    <path d="M7.5,3 C7.77614237,3 8,3.22385763 8,3.5 L8,7 L11.5,7 C11.7761424,7 12,7.22385763 12,7.5 C12,7.77614237 11.7761424,8 11.5,8 L8,8 L8,11.5 C8,11.7761424 7.77614237,12 7.5,12 C7.22385763,12 7,11.7761424 7,11.5 L7,8 L3.5,8 C3.22385763,8 3,7.77614237 3,7.5 C3,7.22385763 3.22385763,7 3.5,7 L7,7 L7,3.5 C7,3.22385763 7.22385763,3 7.5,3 Z" id="形状结合" fill="#4285F4"></path>
                </g>
            </g>
            <g id="编组-2" transform="translate(190.000000, 183.000000)" fill="#4285F4">
                <polygon id="三角形" points="2.5 0 5 3 0 3"></polygon>
                <polygon id="三角形" transform="translate(2.500000, 5.500000) rotate(-180.000000) translate(-2.500000, -5.500000) " points="2.5 4 5 7 0 7"></polygon>
            </g>
            <path d="M166.492101,223 C166.374686,223 166.269037,222.956491 166.175155,222.869473 L161.199406,218.425724 C161.066469,218.312851 161,218.165088 161,217.982433 C161,217.799779 161.066469,217.652016 161.199406,217.539143 L166.151873,213.121249 C166.261527,213.025613 166.386703,212.986552 166.527401,213.004067 C166.668099,213.021581 166.781508,213.091085 166.86763,213.212576 C166.953751,213.334067 166.988925,213.473073 166.973153,213.629594 C166.957381,213.786115 166.894793,213.912055 166.785389,214.007413 L162.337632,217.982016 L166.808672,221.982892 C166.918326,222.078528 166.980914,222.204468 166.996436,222.360711 C167.011958,222.516954 166.976783,222.65596 166.890912,222.777729 C166.789269,222.925354 166.656207,222.999166 166.491726,222.999166 L166.492101,223 Z" id="double-left" fill="#111111" fill-rule="nonzero" transform="translate(164.000000, 218.000000) rotate(-90.000000) translate(-164.000000, -218.000000) "></path>
            <text id="任一联系人" font-family="PingFangSC-Regular, PingFang SC" font-size="14" font-weight="normal" fill="#111111">
                <tspan x="40" y="321">任一联系人</tspan>
            </text>
            <g id="Group-5" transform="translate(20.000000, 309.000000)" fill="#4285F4">
                <path d="M7,0 C10.8659932,0 14,3.13400675 14,7 C14,10.8659932 10.8659932,14 7,14 C3.13400675,14 0,10.8659932 0,7 C0,3.13400675 3.13400675,0 7,0 Z M7,1.75 C4.10050506,1.75 1.75,4.10050506 1.75,7 C1.75,9.89949494 4.10050506,12.25 7,12.25 C9.89949494,12.25 12.25,9.89949494 12.25,7 C12.25,4.10050506 9.89949494,1.75 7,1.75 Z" id="Combined-Shape-Copy-17"></path>
                <circle id="Oval-318-Copy" cx="7" cy="7" r="2.33333333"></circle>
            </g>
            <text id="特定联系人" font-family="PingFangSC-Regular, PingFang SC" font-size="14" font-weight="normal" fill="#111111">
                <tspan x="150" y="321">特定联系人</tspan>
            </text>
            <path d="M137,309 C140.865993,309 144,312.134007 144,316 C144,319.865993 140.865993,323 137,323 C133.134007,323 130,319.865993 130,316 C130,312.134007 133.134007,309 137,309 Z M137,310.75 C134.100505,310.75 131.75,313.100505 131.75,316 C131.75,318.899495 134.100505,321.25 137,321.25 C139.899495,321.25 142.25,318.899495 142.25,316 C142.25,313.100505 139.899495,310.75 137,310.75 Z" id="Combined-Shape" fill="#C0C0C0"></path>
            <g id="操作点" transform="translate(543.500000, 92.000000)">
                <path d="M11,0 C16.5228475,-1.01453063e-15 21,4.4771525 21,10 C21,13.3641058 19.3388262,16.3402236 16.7920083,18.1528239 L10.5,25 L4.20799169,18.1528239 C1.66117377,16.3402236 4.11984135e-16,13.3641058 0,10 C-6.76353751e-16,4.4771525 4.4771525,1.01453063e-15 10,0 L11,0 Z" id="形状结合" fill="#1951AE" fill-rule="evenodd"></path>
                <text id="1" font-family="PingFangSC-Medium, PingFang SC" font-size="10" font-weight="400" fill="#FFFFFF">
                    <tspan x="8" y="14">2</tspan>
                </text>
            </g>
            <g id="操作点" transform="translate(90.000000, 130.000000)">
                <path d="M10,0 C15.5228475,-1.01453063e-15 20,4.4771525 20,10 C20,13.0843226 18.6036465,15.8425094 16.4086196,17.6768802 L10,25 L3.59541874,17.6802532 C1.39806633,15.8458915 3.77952173e-16,13.0862137 0,10 C-6.76353751e-16,4.4771525 4.4771525,1.01453063e-15 10,0 Z" id="形状结合" fill="#1951AE" fill-rule="evenodd"></path>
                <text id="1" font-family="PingFangSC-Medium, PingFang SC" font-size="10" font-weight="400" fill="#FFFFFF">
                    <tspan x="8" y="14">1</tspan>
                </text>
            </g>
        </g>
    </g>
</svg>