<?xml version="1.0" encoding="UTF-8"?>
<svg width="602px" height="740px" viewBox="0 0 602 740" version="1.1" xmlns="http://www.w3.org/2000/svg" xmlns:xlink="http://www.w3.org/1999/xlink">
    <title>编组 51</title>
    <defs>
        <rect id="path-1" x="0" y="0" width="90" height="22" rx="2"></rect>
        <mask id="mask-2" maskContentUnits="userSpaceOnUse" maskUnits="objectBoundingBox" x="0" y="0" width="90" height="22" fill="white">
            <use xlink:href="#path-1"></use>
        </mask>
    </defs>
    <g id="订阅" stroke="none" stroke-width="1" fill="none" fill-rule="evenodd">
        <g id="编组-51" transform="translate(1.000000, 1.000000)">
            <rect id="Mask" stroke="#D9D9D9" fill="#FFFFFF" x="-0.5" y="-0.5" width="601" height="739" rx="2"></rect>
            <rect id="矩形" stroke="#EEEEEE" fill="#FFFFFF" x="20.5" y="112.5" width="559" height="35" rx="2"></rect>
            <rect id="矩形" stroke="#EEEEEE" fill="#FFFFFF" x="190.5" y="202.5" width="369" height="31" rx="2"></rect>
            <rect id="矩形" stroke="#EEEEEE" fill="#FFFFFF" x="190.5" y="240.5" width="369" height="31" rx="2"></rect>
            <rect id="矩形" stroke="#EEEEEE" fill="#FAFAFA" x="20.5" y="202.5" width="159" height="31" rx="2"></rect>
            <rect id="矩形" stroke="#EEEEEE" fill="#FAFAFA" x="20.5" y="240.5" width="159" height="31" rx="2"></rect>
            <g id="编组-4" transform="translate(404.000000, 690.000000)">
                <g id="编组-3" transform="translate(96.000000, 0.000000)">
                    <rect id="Rectangle-13" stroke="#4285F4" fill="#4285F4" x="0.5" y="0.5" width="79" height="27" rx="2"></rect>
                    <text id="确定" font-family="PingFangSC-Regular, PingFang SC" font-size="12" font-weight="normal" fill="#FFFFFF">
                        <tspan x="28" y="19">确定</tspan>
                    </text>
                </g>
                <g id="编组">
                    <rect id="Rectangle-13" stroke="#DFDFDF" fill="#FFFFFF" x="0.5" y="0.5" width="79" height="27" rx="2"></rect>
                    <text id="取消" font-family="PingFangSC-Regular, PingFang SC" font-size="12" font-weight="normal" fill="#666666">
                        <tspan x="28" y="18">取消</tspan>
                    </text>
                </g>
            </g>
            <text id="创建订阅" font-family="PingFangSC-Regular, PingFang SC" font-size="20" font-weight="normal" fill="#111111">
                <tspan x="20" y="37">创建订阅</tspan>
            </text>
            <text id="通过设置筛选规则，跟踪并聚合你关心的消息" font-family="PingFangSC-Regular, PingFang SC" font-size="14" font-weight="normal" fill="#9B9B9B">
                <tspan x="20" y="61">通过设置筛选规则，跟踪并聚合你关心的消息</tspan>
            </text>
            <text id="二十年时间建立起完整的工业体系吧" font-family="PingFangSC-Regular, PingFang SC" font-size="14" font-weight="normal" fill="#111111">
                <tspan x="30" y="135">二十年时间建立起完整的工业体系吧</tspan>
            </text>
            <text id="请输入关键词" font-family="PingFangSC-Regular, PingFang SC" font-size="14" font-weight="normal" fill="#111111">
                <tspan x="200" y="223">郭妮娜</tspan>
            </text>
            <text id="请输入关键词" font-family="PingFangSC-Regular, PingFang SC" font-size="14" font-weight="normal" fill="#111111">
                <tspan x="200" y="261">卢蛋蛋</tspan>
            </text>
            <text id="关键词" font-family="PingFangSC-Regular, PingFang SC" font-size="14" font-weight="normal" fill="#111111">
                <tspan x="30" y="223">关键词</tspan>
            </text>
            <text id="关键词" font-family="PingFangSC-Regular, PingFang SC" font-size="14" font-weight="normal" fill="#111111">
                <tspan x="30" y="261">关键词</tspan>
            </text>
            <text id="订阅名称" font-family="PingFangSC-Semibold, PingFang SC" font-size="14" font-weight="500" fill="#111111">
                <tspan x="20" y="101">订阅名称</tspan>
            </text>
            <g id="编组-6" transform="translate(20.000000, 596.000000)">
                <text id="消息来源" font-family="PingFangSC-Semibold, PingFang SC" font-size="14" font-weight="500" fill="#111111">
                    <tspan x="0" y="15">消息来源</tspan>
                </text>
                <text id="任一联系人" font-family="PingFangSC-Regular, PingFang SC" font-size="14" font-weight="normal" fill="#111111">
                    <tspan x="20" y="41">任一联系人</tspan>
                </text>
                <g id="Group-5" transform="translate(0.000000, 29.000000)" fill="#C0C0C0">
                    <path d="M7,0 C10.8659932,0 14,3.13400675 14,7 C14,10.8659932 10.8659932,14 7,14 C3.13400675,14 0,10.8659932 0,7 C0,3.13400675 3.13400675,0 7,0 Z M7,1.75 C4.10050506,1.75 1.75,4.10050506 1.75,7 C1.75,9.89949494 4.10050506,12.25 7,12.25 C9.89949494,12.25 12.25,9.89949494 12.25,7 C12.25,4.10050506 9.89949494,1.75 7,1.75 Z" id="Combined-Shape-Copy-17"></path>
                </g>
                <text id="特定联系人" font-family="PingFangSC-Regular, PingFang SC" font-size="14" font-weight="normal" fill="#111111">
                    <tspan x="130" y="41">特定联系人</tspan>
                </text>
                <path d="M117,29 C120.865993,29 124,32.1340068 124,36 C124,39.8659932 120.865993,43 117,43 C113.134007,43 110,39.8659932 110,36 C110,32.1340068 113.134007,29 117,29 Z M117,30.75 C114.100505,30.75 111.75,33.1005051 111.75,36 C111.75,38.8994949 114.100505,41.25 117,41.25 C119.899495,41.25 122.25,38.8994949 122.25,36 C122.25,33.1005051 119.899495,30.75 117,30.75 Z" id="Combined-Shape" fill="#4285F4"></path>
                <circle id="Oval-318-Copy" fill="#4285F4" cx="117.333333" cy="36.3333333" r="2.33333333"></circle>
            </g>
            <text id="消息包含内容" font-family="PingFangSC-Semibold, PingFang SC" font-size="14" font-weight="500" fill="#111111">
                <tspan x="20" y="191">消息包含内容</tspan>
            </text>
            <text id="匹配任一内容" font-family="PingFangSC-Regular, PingFang SC" font-size="12" font-weight="normal" fill="#4285F4">
                <tspan x="114" y="191">匹配任一内容</tspan>
            </text>
            <g id="编组-2" transform="translate(190.000000, 183.000000)" fill="#4285F4">
                <polygon id="三角形" points="2.5 0 5 3 0 3"></polygon>
                <polygon id="三角形" transform="translate(2.500000, 5.500000) rotate(-180.000000) translate(-2.500000, -5.500000) " points="2.5 4 5 7 0 7"></polygon>
            </g>
            <path d="M166.492101,223 C166.374686,223 166.269037,222.956491 166.175155,222.869473 L161.199406,218.425724 C161.066469,218.312851 161,218.165088 161,217.982433 C161,217.799779 161.066469,217.652016 161.199406,217.539143 L166.151873,213.121249 C166.261527,213.025613 166.386703,212.986552 166.527401,213.004067 C166.668099,213.021581 166.781508,213.091085 166.86763,213.212576 C166.953751,213.334067 166.988925,213.473073 166.973153,213.629594 C166.957381,213.786115 166.894793,213.912055 166.785389,214.007413 L162.337632,217.982016 L166.808672,221.982892 C166.918326,222.078528 166.980914,222.204468 166.996436,222.360711 C167.011958,222.516954 166.976783,222.65596 166.890912,222.777729 C166.789269,222.925354 166.656207,222.999166 166.491726,222.999166 L166.492101,223 Z" id="double-left" fill="#111111" fill-rule="nonzero" transform="translate(164.000000, 218.000000) rotate(-90.000000) translate(-164.000000, -218.000000) "></path>
            <path d="M166.492101,261 C166.374686,261 166.269037,260.956491 166.175155,260.869473 L161.199406,256.425724 C161.066469,256.312851 161,256.165088 161,255.982433 C161,255.799779 161.066469,255.652016 161.199406,255.539143 L166.151873,251.121249 C166.261527,251.025613 166.386703,250.986552 166.527401,251.004067 C166.668099,251.021581 166.781508,251.091085 166.86763,251.212576 C166.953751,251.334067 166.988925,251.473073 166.973153,251.629594 C166.957381,251.786115 166.894793,251.912055 166.785389,252.007413 L162.337632,255.982016 L166.808672,259.982892 C166.918326,260.078528 166.980914,260.204468 166.996436,260.360711 C167.011958,260.516954 166.976783,260.65596 166.890912,260.777729 C166.789269,260.925354 166.656207,260.999166 166.491726,260.999166 L166.492101,261 Z" id="double-left" fill="#111111" fill-rule="nonzero" transform="translate(164.000000, 256.000000) rotate(-90.000000) translate(-164.000000, -256.000000) "></path>
            <rect id="矩形" stroke="#EEEEEE" fill="#FFFFFF" x="190.5" y="278.5" width="369" height="31" rx="2"></rect>
            <rect id="矩形" stroke="#EEEEEE" fill="#FAFAFA" x="20.5" y="278.5" width="159" height="31" rx="2"></rect>
            <text id="请输入关键词" font-family="PingFangSC-Regular, PingFang SC" font-size="14" font-weight="normal" fill="#111111">
                <tspan x="200" y="299">阎珊珊</tspan>
            </text>
            <text id="@某人" font-family="PingFangSC-Regular, PingFang SC" font-size="14" font-weight="normal" fill="#111111">
                <tspan x="30" y="299">@某人</tspan>
            </text>
            <path d="M166.492101,299 C166.374686,299 166.269037,298.956491 166.175155,298.869473 L161.199406,294.425724 C161.066469,294.312851 161,294.165088 161,293.982433 C161,293.799779 161.066469,293.652016 161.199406,293.539143 L166.151873,289.121249 C166.261527,289.025613 166.386703,288.986552 166.527401,289.004067 C166.668099,289.021581 166.781508,289.091085 166.86763,289.212576 C166.953751,289.334067 166.988925,289.473073 166.973153,289.629594 C166.957381,289.786115 166.894793,289.912055 166.785389,290.007413 L162.337632,293.982016 L166.808672,297.982892 C166.918326,298.078528 166.980914,298.204468 166.996436,298.360711 C167.011958,298.516954 166.976783,298.65596 166.890912,298.777729 C166.789269,298.925354 166.656207,298.999166 166.491726,298.999166 L166.492101,299 Z" id="double-left备份" fill="#111111" fill-rule="nonzero" transform="translate(164.000000, 294.000000) rotate(-90.000000) translate(-164.000000, -294.000000) "></path>
            <rect id="矩形" stroke="#EEEEEE" fill="#FFFFFF" x="190.5" y="316.5" width="369" height="31" rx="2"></rect>
            <rect id="矩形" stroke="#EEEEEE" fill="#FAFAFA" x="20.5" y="316.5" width="159" height="31" rx="2"></rect>
            <text id="请输入关键词" font-family="PingFangSC-Regular, PingFang SC" font-size="14" font-weight="normal" fill="#111111">
                <tspan x="200" y="337">金睿睿</tspan>
            </text>
            <text id="关键词" font-family="PingFangSC-Regular, PingFang SC" font-size="14" font-weight="normal" fill="#111111">
                <tspan x="30" y="337">关键词</tspan>
            </text>
            <path d="M166.492101,337 C166.374686,337 166.269037,336.956491 166.175155,336.869473 L161.199406,332.425724 C161.066469,332.312851 161,332.165088 161,331.982433 C161,331.799779 161.066469,331.652016 161.199406,331.539143 L166.151873,327.121249 C166.261527,327.025613 166.386703,326.986552 166.527401,327.004067 C166.668099,327.021581 166.781508,327.091085 166.86763,327.212576 C166.953751,327.334067 166.988925,327.473073 166.973153,327.629594 C166.957381,327.786115 166.894793,327.912055 166.785389,328.007413 L162.337632,331.982016 L166.808672,335.982892 C166.918326,336.078528 166.980914,336.204468 166.996436,336.360711 C167.011958,336.516954 166.976783,336.65596 166.890912,336.777729 C166.789269,336.925354 166.656207,336.999166 166.491726,336.999166 L166.492101,337 Z" id="double-left备份-2" fill="#111111" fill-rule="nonzero" transform="translate(164.000000, 332.000000) rotate(-90.000000) translate(-164.000000, -332.000000) "></path>
            <rect id="矩形" stroke="#EEEEEE" fill="#FFFFFF" x="190.5" y="354.5" width="369" height="31" rx="2"></rect>
            <rect id="矩形" stroke="#EEEEEE" fill="#FAFAFA" x="20.5" y="354.5" width="159" height="31" rx="2"></rect>
            <text id="请输入关键词" font-family="PingFangSC-Regular, PingFang SC" font-size="14" font-weight="normal" fill="#111111">
                <tspan x="200" y="375">常慧</tspan>
            </text>
            <text id="关键词" font-family="PingFangSC-Regular, PingFang SC" font-size="14" font-weight="normal" fill="#111111">
                <tspan x="30" y="375">关键词</tspan>
            </text>
            <path d="M166.492101,375 C166.374686,375 166.269037,374.956491 166.175155,374.869473 L161.199406,370.425724 C161.066469,370.312851 161,370.165088 161,369.982433 C161,369.799779 161.066469,369.652016 161.199406,369.539143 L166.151873,365.121249 C166.261527,365.025613 166.386703,364.986552 166.527401,365.004067 C166.668099,365.021581 166.781508,365.091085 166.86763,365.212576 C166.953751,365.334067 166.988925,365.473073 166.973153,365.629594 C166.957381,365.786115 166.894793,365.912055 166.785389,366.007413 L162.337632,369.982016 L166.808672,373.982892 C166.918326,374.078528 166.980914,374.204468 166.996436,374.360711 C167.011958,374.516954 166.976783,374.65596 166.890912,374.777729 C166.789269,374.925354 166.656207,374.999166 166.491726,374.999166 L166.492101,375 Z" id="double-left备份-3" fill="#111111" fill-rule="nonzero" transform="translate(164.000000, 370.000000) rotate(-90.000000) translate(-164.000000, -370.000000) "></path>
            <rect id="矩形" stroke="#EEEEEE" fill="#FFFFFF" x="190.5" y="392.5" width="369" height="31" rx="2"></rect>
            <rect id="矩形" stroke="#EEEEEE" fill="#FAFAFA" x="20.5" y="392.5" width="159" height="31" rx="2"></rect>
            <text id="请输入关键词" font-family="PingFangSC-Regular, PingFang SC" font-size="14" font-weight="normal" fill="#111111">
                <tspan x="200" y="413">谢小豆丁</tspan>
            </text>
            <text id="关键词" font-family="PingFangSC-Regular, PingFang SC" font-size="14" font-weight="normal" fill="#111111">
                <tspan x="30" y="413">关键词</tspan>
            </text>
            <path d="M166.492101,413 C166.374686,413 166.269037,412.956491 166.175155,412.869473 L161.199406,408.425724 C161.066469,408.312851 161,408.165088 161,407.982433 C161,407.799779 161.066469,407.652016 161.199406,407.539143 L166.151873,403.121249 C166.261527,403.025613 166.386703,402.986552 166.527401,403.004067 C166.668099,403.021581 166.781508,403.091085 166.86763,403.212576 C166.953751,403.334067 166.988925,403.473073 166.973153,403.629594 C166.957381,403.786115 166.894793,403.912055 166.785389,404.007413 L162.337632,407.982016 L166.808672,411.982892 C166.918326,412.078528 166.980914,412.204468 166.996436,412.360711 C167.011958,412.516954 166.976783,412.65596 166.890912,412.777729 C166.789269,412.925354 166.656207,412.999166 166.491726,412.999166 L166.492101,413 Z" id="double-left备份-4" fill="#111111" fill-rule="nonzero" transform="translate(164.000000, 408.000000) rotate(-90.000000) translate(-164.000000, -408.000000) "></path>
            <rect id="矩形" stroke="#EEEEEE" fill="#FFFFFF" x="190.5" y="430.5" width="369" height="31" rx="2"></rect>
            <rect id="矩形" stroke="#EEEEEE" fill="#FAFAFA" x="20.5" y="430.5" width="159" height="31" rx="2"></rect>
            <text id="请输入关键词" font-family="PingFangSC-Regular, PingFang SC" font-size="14" font-weight="normal" fill="#111111">
                <tspan x="200" y="451">马帝圆</tspan>
            </text>
            <text id="关键词" font-family="PingFangSC-Regular, PingFang SC" font-size="14" font-weight="normal" fill="#111111">
                <tspan x="30" y="451">关键词</tspan>
            </text>
            <path d="M166.492101,451 C166.374686,451 166.269037,450.956491 166.175155,450.869473 L161.199406,446.425724 C161.066469,446.312851 161,446.165088 161,445.982433 C161,445.799779 161.066469,445.652016 161.199406,445.539143 L166.151873,441.121249 C166.261527,441.025613 166.386703,440.986552 166.527401,441.004067 C166.668099,441.021581 166.781508,441.091085 166.86763,441.212576 C166.953751,441.334067 166.988925,441.473073 166.973153,441.629594 C166.957381,441.786115 166.894793,441.912055 166.785389,442.007413 L162.337632,445.982016 L166.808672,449.982892 C166.918326,450.078528 166.980914,450.204468 166.996436,450.360711 C167.011958,450.516954 166.976783,450.65596 166.890912,450.777729 C166.789269,450.925354 166.656207,450.999166 166.491726,450.999166 L166.492101,451 Z" id="double-left备份-5" fill="#111111" fill-rule="nonzero" transform="translate(164.000000, 446.000000) rotate(-90.000000) translate(-164.000000, -446.000000) "></path>
            <rect id="矩形" stroke="#EEEEEE" fill="#FFFFFF" x="190.5" y="468.5" width="369" height="31" rx="2"></rect>
            <rect id="矩形" stroke="#EEEEEE" fill="#FAFAFA" x="20.5" y="468.5" width="159" height="31" rx="2"></rect>
            <text id="请输入关键词" font-family="PingFangSC-Regular, PingFang SC" font-size="14" font-weight="normal" fill="#111111">
                <tspan x="200" y="489">钱优优</tspan>
            </text>
            <text id="关键词" font-family="PingFangSC-Regular, PingFang SC" font-size="14" font-weight="normal" fill="#111111">
                <tspan x="30" y="489">关键词</tspan>
            </text>
            <path d="M166.492101,489 C166.374686,489 166.269037,488.956491 166.175155,488.869473 L161.199406,484.425724 C161.066469,484.312851 161,484.165088 161,483.982433 C161,483.799779 161.066469,483.652016 161.199406,483.539143 L166.151873,479.121249 C166.261527,479.025613 166.386703,478.986552 166.527401,479.004067 C166.668099,479.021581 166.781508,479.091085 166.86763,479.212576 C166.953751,479.334067 166.988925,479.473073 166.973153,479.629594 C166.957381,479.786115 166.894793,479.912055 166.785389,480.007413 L162.337632,483.982016 L166.808672,487.982892 C166.918326,488.078528 166.980914,488.204468 166.996436,488.360711 C167.011958,488.516954 166.976783,488.65596 166.890912,488.777729 C166.789269,488.925354 166.656207,488.999166 166.491726,488.999166 L166.492101,489 Z" id="double-left备份-6" fill="#111111" fill-rule="nonzero" transform="translate(164.000000, 484.000000) rotate(-90.000000) translate(-164.000000, -484.000000) "></path>
            <rect id="矩形" stroke="#EEEEEE" fill="#FFFFFF" x="190.5" y="506.5" width="369" height="31" rx="2"></rect>
            <rect id="矩形" stroke="#EEEEEE" fill="#FAFAFA" x="20.5" y="506.5" width="159" height="31" rx="2"></rect>
            <text id="01498" font-family="PingFangSC-Regular, PingFang SC" font-size="14" font-weight="normal" fill="#111111">
                <tspan x="200" y="527">01498</tspan>
            </text>
            <text id="债券代码" font-family="PingFangSC-Regular, PingFang SC" font-size="14" font-weight="normal" fill="#111111">
                <tspan x="30" y="527">债券代码</tspan>
            </text>
            <path d="M166.492101,527 C166.374686,527 166.269037,526.956491 166.175155,526.869473 L161.199406,522.425724 C161.066469,522.312851 161,522.165088 161,521.982433 C161,521.799779 161.066469,521.652016 161.199406,521.539143 L166.151873,517.121249 C166.261527,517.025613 166.386703,516.986552 166.527401,517.004067 C166.668099,517.021581 166.781508,517.091085 166.86763,517.212576 C166.953751,517.334067 166.988925,517.473073 166.973153,517.629594 C166.957381,517.786115 166.894793,517.912055 166.785389,518.007413 L162.337632,521.982016 L166.808672,525.982892 C166.918326,526.078528 166.980914,526.204468 166.996436,526.360711 C167.011958,526.516954 166.976783,526.65596 166.890912,526.777729 C166.789269,526.925354 166.656207,526.999166 166.491726,526.999166 L166.492101,527 Z" id="double-left备份-7" fill="#111111" fill-rule="nonzero" transform="translate(164.000000, 522.000000) rotate(-90.000000) translate(-164.000000, -522.000000) "></path>
            <rect id="矩形" stroke="#EEEEEE" fill="#FFFFFF" x="190.5" y="544.5" width="369" height="31" rx="2"></rect>
            <rect id="矩形" stroke="#EEEEEE" fill="#FAFAFA" x="20.5" y="544.5" width="159" height="31" rx="2"></rect>
            <text id="请输入关键词" font-family="PingFangSC-Regular, PingFang SC" font-size="14" font-weight="normal" fill="#111111">
                <tspan x="200" y="565">请输入关键词</tspan>
            </text>
            <text id="关键词" font-family="PingFangSC-Regular, PingFang SC" font-size="14" font-weight="normal" fill="#111111">
                <tspan x="30" y="565">关键词</tspan>
            </text>
            <path d="M166.492101,565 C166.374686,565 166.269037,564.956491 166.175155,564.869473 L161.199406,560.425724 C161.066469,560.312851 161,560.165088 161,559.982433 C161,559.799779 161.066469,559.652016 161.199406,559.539143 L166.151873,555.121249 C166.261527,555.025613 166.386703,554.986552 166.527401,555.004067 C166.668099,555.021581 166.781508,555.091085 166.86763,555.212576 C166.953751,555.334067 166.988925,555.473073 166.973153,555.629594 C166.957381,555.786115 166.894793,555.912055 166.785389,556.007413 L162.337632,559.982016 L166.808672,563.982892 C166.918326,564.078528 166.980914,564.204468 166.996436,564.360711 C167.011958,564.516954 166.976783,564.65596 166.890912,564.777729 C166.789269,564.925354 166.656207,564.999166 166.491726,564.999166 L166.492101,565 Z" id="double-left备份-8" fill="#111111" fill-rule="nonzero" transform="translate(164.000000, 560.000000) rotate(-90.000000) translate(-164.000000, -560.000000) "></path>
            <polygon id="路径" fill="#9B9B9B" points="580 214 575.9 218.099 579.9 222.1 579 223 575 218.999 571 223 570 222 574.0001 217.9991 570 214 570.9 213.1 574.9001 217.0991 579 213"></polygon>
            <polygon id="路径" fill="#9B9B9B" points="580 252 575.9 256.099 579.9 260.1 579 261 575 256.999 571 261 570 260 574.0001 255.9991 570 252 570.9 251.1 574.9001 255.0991 579 251"></polygon>
            <polygon id="路径" fill="#9B9B9B" points="580 290 575.9 294.099 579.9 298.1 579 299 575 294.999 571 299 570 298 574.0001 293.9991 570 290 570.9 289.1 574.9001 293.0991 579 289"></polygon>
            <polygon id="路径备份" fill="#9B9B9B" points="580 328 575.9 332.099 579.9 336.1 579 337 575 332.999 571 337 570 336 574.0001 331.9991 570 328 570.9 327.1 574.9001 331.0991 579 327"></polygon>
            <polygon id="路径备份-2" fill="#9B9B9B" points="580 366 575.9 370.099 579.9 374.1 579 375 575 370.999 571 375 570 374 574.0001 369.9991 570 366 570.9 365.1 574.9001 369.0991 579 365"></polygon>
            <polygon id="路径备份-3" fill="#9B9B9B" points="580 404 575.9 408.099 579.9 412.1 579 413 575 408.999 571 413 570 412 574.0001 407.9991 570 404 570.9 403.1 574.9001 407.0991 579 403"></polygon>
            <polygon id="路径备份-4" fill="#9B9B9B" points="580 442 575.9 446.099 579.9 450.1 579 451 575 446.999 571 451 570 450 574.0001 445.9991 570 442 570.9 441.1 574.9001 445.0991 579 441"></polygon>
            <polygon id="路径备份-5" fill="#9B9B9B" points="580 480 575.9 484.099 579.9 488.1 579 489 575 484.999 571 489 570 488 574.0001 483.9991 570 480 570.9 479.1 574.9001 483.0991 579 479"></polygon>
            <polygon id="路径备份-6" fill="#9B9B9B" points="580 518 575.9 522.099 579.9 526.1 579 527 575 522.999 571 527 570 526 574.0001 521.9991 570 518 570.9 517.1 574.9001 521.0991 579 517"></polygon>
            <polygon id="路径备份-7" fill="#9B9B9B" points="580 556 575.9 560.099 579.9 564.1 579 565 575 560.999 571 565 570 564 574.0001 559.9991 570 556 570.9 555.1 574.9001 559.0991 579 555"></polygon>
            <g id="分组-9" transform="translate(20.000000, 648.000000)">
                <use id="矩形" stroke="#EEEEEE" mask="url(#mask-2)" stroke-width="2" stroke-dasharray="3" fill-rule="nonzero" xlink:href="#path-1"></use>
                <text id="选择成员" font-family="PingFangSC-Regular, PingFang SC" font-size="12" font-weight="normal" fill="#9B9B9B">
                    <tspan x="28" y="16">选择成员</tspan>
                </text>
                <path d="M16,5 C16.4142136,5 16.75,5.33578644 16.75,5.75 L16.75,10.25 L21.25,10.25 C21.6642136,10.25 22,10.5857864 22,11 C22,11.4142136 21.6642136,11.75 21.25,11.75 L16.749,11.75 L16.75,16.25 C16.75,16.6642136 16.4142136,17 16,17 C15.5857864,17 15.25,16.6642136 15.25,16.25 L15.249,11.75 L10.75,11.75 C10.3357864,11.75 10,11.4142136 10,11 C10,10.5857864 10.3357864,10.25 10.75,10.25 L15.25,10.25 L15.25,5.75 C15.25,5.33578644 15.5857864,5 16,5 Z" id="Combined-Shape" fill="#9B9B9B"></path>
            </g>
            <g id="操作点" transform="translate(71.000000, 629.000000)">
                <path d="M11,0 C16.5228475,-1.01453063e-15 21,4.4771525 21,10 C21,13.3641058 19.3388262,16.3402236 16.7920083,18.1528239 L10.5,25 L4.20799169,18.1528239 C1.66117377,16.3402236 4.11984135e-16,13.3641058 0,10 C-6.76353751e-16,4.4771525 4.4771525,1.01453063e-15 10,0 L11,0 Z" id="形状结合" fill="#1951AE" fill-rule="evenodd"></path>
                <text id="1" font-family="PingFangSC-Medium, PingFang SC" font-size="10" font-weight="400" fill="#FFFFFF">
                    <tspan x="8" y="14">2</tspan>
                </text>
            </g>
            <g id="操作点" transform="translate(170.000000, 601.000000)">
                <path d="M10,0 C15.5228475,-1.01453063e-15 20,4.4771525 20,10 C20,13.0843226 18.6036465,15.8425094 16.4086196,17.6768802 L10,25 L3.59541874,17.6802532 C1.39806633,15.8458915 3.77952173e-16,13.0862137 0,10 C-6.76353751e-16,4.4771525 4.4771525,1.01453063e-15 10,0 Z" id="形状结合" fill="#1951AE" fill-rule="evenodd"></path>
                <text id="1" font-family="PingFangSC-Medium, PingFang SC" font-size="10" font-weight="400" fill="#FFFFFF">
                    <tspan x="8" y="14">1</tspan>
                </text>
            </g>
        </g>
    </g>
</svg>